<svg id="_레이어_1" data-name="레이어 1" xmlns="http://www.w3.org/2000/svg" viewBox="0 0 1617.3 263.68">
  <defs>
    <style>
      .cls-1 {
        fill: #54daff;
      }
    </style>
  </defs>
  <g>
    <path class="cls-1" d="M264.32,0h0s-243.14,0-243.14,0v134.56c0,35.06,28.42,63.49,63.49,63.49h116.16c35.06,0,63.49-28.42,63.49-63.49v-12.84h25.59c36.06,0,65.4-29.34,65.4-65.4V0h-90.99ZM315.61,56.32c0,14.17-11.53,25.7-25.7,25.7h-5.74v-42.32h31.44v16.62Z"/>
    <rect class="cls-1" y="223.98" width="376.33" height="39.7"/>
  </g>
  <g>
    <polygon class="cls-1" points="524.82 44.15 486.66 44.15 486.66 219.3 597.38 219.3 597.38 186.12 524.82 186.12 524.82 44.15"/>
    <path class="cls-1" d="M691.59,44.15l-64.7,175.15h40.67l15.82-42.95h59.51l15.37,42.95h40.66l-63.08-175.15h-44.25ZM730.92,143.17h-35.28l18.03-48.81,17.25,48.81Z"/>
    <path class="cls-1" d="M920.66,127.12c-6.73-3.63-15.58-7.62-26.32-11.86-7.28-2.82-13.05-5.23-17.17-7.18-3.91-1.85-7.18-4.14-9.72-6.82-2.39-2.52-3.55-5.42-3.55-8.87,0-3.25.78-6.19,2.33-8.74,1.53-2.52,3.91-4.56,7.09-6.04,3.27-1.53,7.3-2.31,11.97-2.31,4.22,0,8.52,1.62,12.76,4.82,4.3,3.24,8.24,9.21,11.71,17.74l.69,1.7,33.59-12.37-.68-1.79c-3.69-9.7-8.82-17.87-15.24-24.29-6.41-6.41-13.47-11.19-20.98-14.21-7.51-3.02-14.86-4.55-21.84-4.55-11.52,0-21.86,2.03-30.74,6.05-8.96,4.05-16.03,9.91-21.03,17.4-5.01,7.51-7.55,16.46-7.55,26.6,0,11.21,2.63,20.52,7.82,27.68,5.13,7.07,11.32,12.51,18.41,16.17,6.89,3.56,15.9,7.36,26.82,11.3,7.01,2.39,12.55,4.5,16.44,6.26,3.76,1.7,6.91,3.84,9.37,6.37,2.3,2.37,3.42,5.19,3.42,8.62,0,6.1-2.03,10.76-6.21,14.25-4.23,3.53-11.08,5.32-20.37,5.32-5.32,0-10.71-1.79-16.01-5.33-5.36-3.57-10.74-10.34-16-20.12l-.92-1.71-31.19,17.75,1,1.67c7.64,12.69,16.92,22.74,27.58,29.87,10.74,7.19,22.7,10.83,35.53,10.83s24.5-2.23,34.13-6.61c9.7-4.42,17.27-10.66,22.5-18.54,5.23-7.89,7.89-17.11,7.89-27.39s-2.56-19.02-7.6-25.88c-4.97-6.75-11-12.07-17.92-15.8Z"/>
    <polygon class="cls-1" points="974.72 77.34 1020.38 77.34 1020.38 219.3 1058.54 219.3 1058.54 77.34 1103.3 77.34 1103.3 44.15 974.72 44.15 974.72 77.34"/>
    <path class="cls-1" d="M1236.17,169.73c-3.59,5.03-8.38,9.3-14.21,12.69-5.78,3.36-12.72,5.06-20.63,5.06-9.69,0-18.26-2.26-25.45-6.72-7.18-4.45-12.8-10.91-16.69-19.2-3.93-8.37-5.92-18.41-5.92-29.82s1.99-21.49,5.93-29.94c3.89-8.35,9.5-14.81,16.67-19.18,7.2-4.39,15.77-6.62,25.46-6.62,7.18,0,14.15,1.75,20.7,5.21,6.54,3.45,11.82,8.11,15.7,13.85l1.35,2.01,24.75-27.31-1.25-1.28c-7.97-8.12-17.3-14.57-27.72-19.17-10.45-4.61-21.66-6.94-33.32-6.94-16.68,0-31.76,3.81-44.8,11.33-13.06,7.53-23.38,18.2-30.67,31.71-7.28,13.48-10.97,29.07-10.97,46.34s3.69,32.64,10.97,46.11c7.29,13.51,17.61,24.22,30.67,31.82,13.04,7.6,28.12,11.45,44.79,11.45.41,0,.81,0,1.22,0,12.1,0,23.06-2.19,32.6-6.51,9.82-4.45,18.99-11.05,27.26-19.63l1.31-1.36-26.45-25.69-1.28,1.8Z"/>
    <path class="cls-1" d="M1403.09,147.78c0,11.85-2.67,21.15-7.94,27.62-5.17,6.36-13.35,9.59-24.3,9.59s-19.13-3.22-24.3-9.59c-5.27-6.48-7.94-15.77-7.94-27.62V44.15h-38.16v104.08c0,14.11,2.85,26.8,8.46,37.71,5.64,10.98,13.88,19.65,24.48,25.76,10.57,6.09,23.17,9.18,37.46,9.18s26.88-3.09,37.46-9.18c10.59-6.11,18.83-14.78,24.48-25.76,5.61-10.92,8.46-23.61,8.46-37.71V44.15h-38.16v103.62Z"/>
    <path class="cls-1" d="M1608.38,72.91c-5.21-9.01-12.57-16.13-21.87-21.18-9.28-5.03-20.01-7.57-31.88-7.57h-70.62v175.15h38.16v-56.06h32.46c11.87,0,22.6-2.55,31.88-7.58,9.31-5.04,16.67-12.17,21.87-21.18,5.19-8.99,7.83-19.35,7.83-30.79s-2.63-21.79-7.83-30.79ZM1578.05,103.7c0,7.75-2.3,14.17-6.84,19.05-4.57,4.92-10.36,7.31-17.71,7.31h-31.33v-52.72h31.33c7.35,0,13.14,2.39,17.71,7.3,4.54,4.89,6.84,11.3,6.84,19.05Z"/>
  </g>
</svg>