<svg id="_레이어_1" data-name="레이어 1" xmlns="http://www.w3.org/2000/svg" viewBox="0 0 595.09 94.3">
  <defs>
    <style>
      .cls-1 {
        fill: #54daff;
      }
    </style>
  </defs>
  <polygon class="cls-1" points="20.1 .95 0 .95 0 93.23 58.33 93.23 58.33 75.74 20.1 75.74 20.1 .95"/>
  <path class="cls-1" d="M107.97.95l-34.09,92.27h21.43l8.34-22.63h31.35l8.1,22.63h21.42L131.28.95h-23.31ZM128.69,53.12h-18.59l9.5-25.71,9.09,25.71Z"/>
  <path class="cls-1" d="M228.65,44.66c-3.55-1.91-8.21-4.01-13.87-6.25-3.83-1.48-6.88-2.76-9.05-3.78-2.06-.97-3.78-2.18-5.12-3.6-1.26-1.33-1.87-2.85-1.87-4.67,0-1.71.41-3.26,1.23-4.6.8-1.33,2.06-2.4,3.74-3.18,1.72-.81,3.85-1.22,6.31-1.22,2.23,0,4.49.85,6.72,2.54,2.26,1.71,4.34,4.85,6.17,9.34l.36.9,17.7-6.52-.36-.94c-1.95-5.11-4.65-9.41-8.03-12.8-3.38-3.38-7.1-5.9-11.05-7.49-3.95-1.59-7.83-2.39-11.51-2.39-6.07,0-11.52,1.07-16.19,3.19-4.72,2.13-8.45,5.22-11.08,9.17-2.64,3.96-3.98,8.67-3.98,14.01,0,5.91,1.39,10.81,4.12,14.58,2.7,3.73,5.97,6.59,9.7,8.52,3.63,1.88,8.38,3.88,14.13,5.95,3.7,1.26,6.61,2.37,8.66,3.3,1.98.9,3.64,2.03,4.94,3.36,1.21,1.25,1.8,2.73,1.8,4.54,0,3.21-1.07,5.67-3.27,7.51-2.23,1.86-5.84,2.8-10.73,2.8-2.8,0-5.64-.95-8.44-2.81-2.82-1.88-5.66-5.45-8.43-10.6l-.48-.9-16.43,9.35.53.88c4.03,6.69,8.92,11.98,14.53,15.74,5.66,3.79,11.96,5.71,18.72,5.71s12.91-1.17,17.98-3.48c5.11-2.33,9.1-5.62,11.85-9.77,2.76-4.16,4.16-9.01,4.16-14.43s-1.35-10.02-4.01-13.63c-2.62-3.56-5.8-6.36-9.44-8.33Z"/>
  <polygon class="cls-1" points="257.12 18.44 281.18 18.44 281.18 93.23 301.28 93.23 301.28 18.44 324.87 18.44 324.87 .95 257.12 .95 257.12 18.44"/>
  <path class="cls-1" d="M394.87,67.11c-1.89,2.65-4.41,4.9-7.49,6.68-3.05,1.77-6.7,2.66-10.87,2.66-5.11,0-9.62-1.19-13.41-3.54-3.78-2.34-6.74-5.75-8.79-10.11-2.07-4.41-3.12-9.7-3.12-15.71s1.05-11.32,3.12-15.78c2.05-4.4,5-7.8,8.78-10.11,3.79-2.31,8.31-3.49,13.41-3.49,3.79,0,7.46.92,10.91,2.74,3.45,1.82,6.23,4.27,8.27,7.3l.71,1.06,13.04-14.39-.66-.67c-4.2-4.28-9.11-7.68-14.6-10.1-5.5-2.43-11.41-3.66-17.55-3.66-8.79,0-16.73,2.01-23.6,5.97-6.88,3.97-12.32,9.59-16.16,16.71-3.83,7.1-5.78,15.31-5.78,24.41s1.94,17.19,5.78,24.29c3.84,7.12,9.28,12.76,16.16,16.76,6.87,4,14.81,6.03,23.59,6.03.21,0,.43,0,.64,0,6.37,0,12.15-1.15,17.17-3.43,5.17-2.34,10.01-5.82,14.36-10.34l.69-.72-13.94-13.53-.68.95Z"/>
  <path class="cls-1" d="M482.81,55.55c0,6.24-1.41,11.14-4.18,14.55-2.73,3.35-7.03,5.05-12.8,5.05s-10.08-1.7-12.8-5.05c-2.78-3.41-4.18-8.31-4.18-14.55V.95h-20.1v54.83c0,7.43,1.5,14.12,4.46,19.87,2.97,5.79,7.31,10.35,12.9,13.57,5.57,3.21,12.21,4.84,19.73,4.84s14.16-1.63,19.73-4.84c5.58-3.22,9.92-7.78,12.89-13.57,2.96-5.75,4.46-12.44,4.46-19.87V.95h-20.1v54.59Z"/>
  <path class="cls-1" d="M590.96,16.1c-2.74-4.75-6.62-8.5-11.52-11.16-4.89-2.65-10.54-3.99-16.79-3.99h-37.2v92.27h20.1v-29.54h17.1c6.25,0,11.9-1.34,16.79-3.99,4.9-2.66,8.78-6.41,11.52-11.16,2.74-4.74,4.12-10.2,4.12-16.22s-1.39-11.48-4.12-16.22ZM574.99,32.32c0,4.09-1.21,7.46-3.6,10.04-2.41,2.59-5.46,3.85-9.33,3.85h-16.51v-27.77h16.51c3.87,0,6.92,1.26,9.33,3.85,2.39,2.58,3.6,5.96,3.6,10.04Z"/>
</svg>