<svg width="312" height="286" viewBox="0 0 312 286" fill="none" xmlns="http://www.w3.org/2000/svg">
<path d="M43.3589 224.37V230.916C43.3589 237.091 46.9588 242.696 52.563 245.249L128.388 279.797C137.779 284.075 148.818 282.217 156.3 275.097L288.62 149.172C290.803 147.096 292.042 144.208 292.042 141.19V131.077" fill="#2B2B2B"/>
<path d="M184.112 90.4937C189.671 85.3839 197.718 84.0511 204.621 87.0963L286.562 123.232C292.587 125.888 293.94 133.861 289.132 138.367L153.92 265.105C146.829 271.751 136.42 273.409 127.625 269.289L48.7029 232.319C42.7263 229.519 41.5001 221.525 46.3655 217.056L184.112 90.4937Z" fill="url(#paint0_linear_717_9110)" stroke="#686868" stroke-miterlimit="10"/>
<path d="M65.3701 208.006L158.822 250.693L276.849 140.777L183.394 98.8701L65.3701 208.006Z" fill="url(#paint1_linear_717_9110)"/>
<path d="M246.174 115.796L225.015 106.372C224.598 106.186 224.11 106.374 223.924 106.793C223.739 107.211 223.927 107.701 224.344 107.887L245.503 117.311C245.92 117.497 246.409 117.309 246.594 116.89C246.779 116.472 246.591 115.982 246.174 115.796Z" fill="#3A3A3A"/>
<path d="M100.872 245.453C106.081 245.453 110.303 242.412 110.303 238.661C110.303 234.91 106.081 231.869 100.872 231.869C95.6634 231.869 91.4409 234.91 91.4409 238.661C91.4409 242.412 95.6634 245.453 100.872 245.453Z" fill="url(#paint2_linear_717_9110)" stroke="#686868" stroke-miterlimit="10"/>
<path d="M73.9321 200.091L259.415 132.959L236.669 122.761L105.141 171.229L73.9321 200.091Z" fill="#464646"/>
<path d="M73.9321 211.919L273.997 139.499L276.849 140.777L268.432 148.613L82.7547 215.948L73.9321 211.919Z" fill="#464646"/>
<path d="M163.796 202.257C188.477 197.902 207.206 187.08 205.627 178.087C204.049 169.093 182.762 165.333 158.081 169.688C133.4 174.043 114.671 184.864 116.25 193.858C117.828 202.852 139.115 206.612 163.796 202.257Z" fill="url(#paint3_linear_717_9110)"/>
<path d="M193.513 94.5744L194.817 109.612C194.817 109.612 209.281 99.9483 209.184 119.382C209.084 138.816 195.272 129.714 195.272 129.714L193.261 143.841C193.261 143.841 223.674 152.907 223.841 120.023C224.007 87.139 193.513 94.5714 193.513 94.5714V94.5744Z" fill="url(#paint4_linear_717_9110)"/>
<path d="M198.19 157.203L199.032 85.323C199.096 79.9158 196.238 74.8607 191.517 72.2405C174.03 62.5341 139.79 67.905 139.79 67.905C139.79 67.905 108.372 72.2952 95.4287 86.6103C91.9136 90.4996 90.7419 95.9767 92.3132 100.983L113.961 169.884C116.28 177.268 123.044 182.338 130.764 182.478L131.936 182.539C150.326 183.504 168.719 180.741 186.022 174.417C193.255 171.773 198.1 164.917 198.19 157.196V157.203Z" fill="url(#paint5_linear_717_9110)"/>
<path d="M148.012 111.127C177.547 107.185 200.146 93.8591 198.487 81.3615C196.829 68.8639 171.541 61.9277 142.006 65.869C112.47 69.8103 89.8718 83.1367 91.5303 95.6343C93.1888 108.132 118.476 115.068 148.012 111.127Z" fill="url(#paint6_linear_717_9110)"/>
<path d="M145.34 78.7198C122.983 81.4887 105.208 89.838 105.638 97.3705C105.665 97.8441 105.765 98.3056 105.932 98.7489C113.083 103.261 128.445 105.11 146.039 102.93C165.138 100.564 181.108 94.1644 186.601 87.3332C186.162 79.8067 167.696 75.9509 145.343 78.7198H145.34Z" fill="#A37F4F"/>
<path d="M105.638 97.3677C105.208 89.8382 122.983 81.4889 145.339 78.717C167.69 75.948 186.158 79.8039 186.597 87.3304C188.011 85.5725 188.732 83.7872 188.632 82.0354C188.144 73.4736 168.283 68.9438 144.271 71.9191C120.258 74.8945 101.19 84.2457 101.678 92.8105C101.808 95.0997 103.325 97.1005 105.934 98.7461C105.768 98.3028 105.668 97.8413 105.641 97.3677H105.638Z" fill="#F8F5ED"/>
<path d="M170.863 89.5132C158.958 97.7198 144.004 98.8098 133.928 100.115C133.15 100.215 133.238 101.36 134.025 101.351C147.919 101.22 161.762 97.3373 171.707 93.7152H171.713C175.153 92.4613 176.815 91.8055 179.164 90.7823C180.079 90.3846 181.992 89.158 182.295 88.4111C182.94 86.8172 182.244 84.8194 180.369 84.0543C176.297 81.6224 167.496 81.8532 164.801 81.9898C164.072 82.0262 163.357 82.2539 162.776 82.6972C161.877 83.3834 161.889 84.1211 162.194 84.7435C162.643 85.6513 163.551 85.9367 164.656 86.1037C164.656 86.1037 174.024 87.3364 170.866 89.5132H170.863Z" fill="#967042"/>
<path d="M120.04 94.7563C131.019 98.6182 142.318 96.0496 150.087 94.7806C150.686 94.6834 150.932 95.6246 150.35 95.7976C140.089 98.8945 128.854 98.9582 120.555 98.3358H120.549C117.679 98.1203 116.277 97.9745 114.276 97.6922C113.495 97.5829 111.757 97.0364 111.33 96.5051C110.424 95.3726 110.397 93.6026 111.569 92.5551C113.909 89.6587 120.449 87.8188 122.469 87.3057C123.017 87.166 123.604 87.1873 124.149 87.4089C124.997 87.752 125.187 88.3501 125.13 88.9209C125.045 89.7558 124.455 90.193 123.686 90.5847C123.686 90.5847 117.125 93.7361 120.037 94.7593L120.04 94.7563Z" fill="#C49F7A"/>
<path d="M208.315 37.405C208.315 37.405 207.825 40.3288 206.983 41.9409C206.968 41.9713 206.95 41.9986 206.925 42.0259C206.729 42.2749 205.663 43.6411 205.53 44.2271C205.521 44.2666 205.511 44.306 205.496 44.3394C205.421 44.5125 205.172 45.0742 204.906 45.73C204.897 45.7543 204.885 45.7785 204.87 45.8028C204.739 46.0184 204.04 47.2237 203.852 48.1285C203.852 48.1285 203.45 49.8439 202.82 51.0917C202.781 51.1706 202.72 51.2374 202.647 51.286C202.529 51.3619 202.342 51.5228 202.251 51.793C202.217 51.8872 202.208 52.045 202.245 52.1392C202.275 52.2151 202.263 52.4306 201.969 53.0227C201.939 53.0864 201.893 53.1441 201.839 53.1896C201.648 53.3566 201.167 53.8242 201.185 54.3403C201.188 54.4587 201.13 54.568 201.034 54.6348C200.601 54.9445 199.417 55.7218 198.13 55.8887C198.003 55.9039 197.797 55.9525 197.673 55.9859C197.249 56.1043 196.419 56.3199 195.932 56.3472C195.738 56.3593 195.547 56.3806 195.357 56.4231C194.951 56.5172 194.315 56.6842 194.009 56.8815C193.852 56.9817 193.685 57.0637 193.513 57.1305C192.868 57.3825 191.527 57.8075 190.276 57.5495C190.089 57.51 189.898 57.4948 189.704 57.4888C189.156 57.4736 188.199 57.4979 187.751 57.8318C187.697 57.8743 187.618 57.8318 187.63 57.762C187.945 55.8827 190.182 43.38 194.418 39.8885L208.312 37.3989L208.315 37.405Z" fill="#C8CCCC"/>
<path d="M181.142 30.7925C181.142 30.7925 180.488 33.1606 180.106 34.2536C180.046 34.4267 179.952 34.5815 179.831 34.7181C179.607 34.9641 179.232 35.4407 179.104 35.9599C179.062 36.133 178.983 36.2939 178.877 36.4366C178.484 36.9497 177.591 38.319 177.257 40.4594C177.257 40.4594 177.142 41.1334 176.994 41.604C176.94 41.774 176.855 41.9289 176.737 42.0625C176.631 42.1809 176.479 42.4359 176.455 42.9399C176.455 43.0097 176.446 43.0765 176.431 43.1433C176.358 43.4773 176.119 44.4822 175.786 44.6037C175.786 44.6037 175.362 45.1532 175.147 46.0397C175.038 46.486 175.165 46.9566 175.483 47.2906C175.883 47.7126 176.573 48.2682 177.648 48.6235C177.648 48.6235 178.469 48.921 178.538 49.6922C178.538 49.6922 178.447 50.6182 179.204 51.0736C179.331 51.1495 179.453 51.2375 179.555 51.3438C179.916 51.7112 180.751 52.5704 181.351 53.1594C181.43 53.2383 181.514 53.3081 181.608 53.3719C182.017 53.6543 183.24 54.477 183.803 54.6987C183.803 54.6987 184.481 54.9173 184.715 55.6034C184.757 55.7279 184.811 55.8463 184.878 55.9587C185.145 56.405 185.78 57.3765 186.262 57.3796C186.262 57.3796 187.082 57.5071 187.436 57.7651C187.555 57.8501 187.724 57.8137 187.8 57.6892C188.233 57 189.22 55.2846 189.55 53.4933C189.565 53.4053 189.574 53.3142 189.571 53.2262C189.565 52.9256 189.586 52.1514 189.892 51.8781C190.028 51.7567 190.152 51.6201 190.237 51.4592C190.355 51.2375 190.497 50.9248 190.579 50.5757C190.597 50.4937 190.622 50.4148 190.655 50.3389C190.803 49.9988 191.257 48.9726 191.708 48.1498C191.778 48.0223 191.827 47.8827 191.854 47.74C191.933 47.3301 192.141 46.4162 192.58 45.6936C192.58 45.6936 193.392 44.3547 193.725 42.7517" fill="#DCE2E2"/>
<path d="M182.159 30.2064C182.159 30.2064 182.537 30.0334 183.252 30.1609C183.767 30.252 184.3 30.2155 184.802 30.0728C185.305 29.9301 185.959 29.754 186.434 29.6387C186.855 29.5354 187.255 29.3594 187.627 29.1316C187.936 28.9404 188.323 28.7491 188.632 28.743C188.632 28.743 189.041 28.7491 189.743 28.5032C189.94 28.4364 190.128 28.3514 190.313 28.2572C190.745 28.0387 191.79 27.5498 192.317 27.6136C192.317 27.6136 193.065 27.6986 193.691 27.7927C193.994 27.8383 194.306 27.817 194.588 27.7047C194.775 27.6318 195.03 27.6015 195.302 27.7684C195.302 27.7684 196.792 28.992 197.125 29.4656C197.125 29.4656 197.44 29.9453 197.966 30.3339C198.072 30.4129 198.187 30.4797 198.302 30.5404C198.72 30.762 200.004 31.4816 200.561 32.2406C200.667 32.3863 200.791 32.5169 200.915 32.6474C201.052 32.7871 201.224 32.9541 201.406 33.112C201.7 33.367 202.048 33.5492 202.417 33.6676C202.684 33.7526 203.089 33.9378 203.41 34.3082C203.41 34.3082 203.677 34.5632 203.976 34.8243C204.24 35.0551 204.539 35.2342 204.866 35.3556C205.257 35.5044 205.823 35.7534 206.099 36.0479C206.18 36.1359 206.265 36.224 206.362 36.2999C206.453 36.3697 206.571 36.4638 206.701 36.5579C207.013 36.7887 207.37 36.9435 207.743 37.0437C207.903 37.0862 208.091 37.1651 208.254 37.3078C208.36 37.3989 208.342 37.5295 208.215 37.5902C207.821 37.7784 206.952 38.2065 206.401 38.5709C206.186 38.7136 205.956 38.832 205.72 38.9322C205.36 39.084 204.888 39.2479 204.594 39.2054C204.594 39.2054 203.819 39.0536 203.428 39.3177C203.428 39.3177 202.832 39.7458 202.475 39.8976C202.217 40.0069 201.972 40.1436 201.742 40.3045C201.37 40.5625 200.776 40.8844 199.962 41.0605C199.45 41.1728 198.953 41.3428 198.496 41.5948C198.478 41.6039 198.46 41.613 198.445 41.6221C198.109 41.8013 197.727 41.8802 197.349 41.8498C196.934 41.8164 196.183 41.8013 195.714 42.0745C195.659 42.1049 195.605 42.1383 195.544 42.1595C195.281 42.2627 194.491 42.5694 193.961 42.7516C193.803 42.8062 193.631 42.7758 193.501 42.6696C192.862 42.1534 190.927 40.5565 190.449 39.7974C190.391 39.7033 190.125 39.6153 190.052 39.5333C189.758 39.1993 189.041 38.4221 188.444 38.1519C188.332 38.1003 188.214 38.0729 188.093 38.0578C187.89 38.0274 187.388 37.909 187.306 37.49C187.306 37.49 186.704 35.4437 185.038 34.9124C184.826 34.8456 184.624 34.7545 184.43 34.6513C184.003 34.4266 183.6 34.0501 183.485 33.6767C183.485 33.6767 182.907 32.6444 181.962 32.0827C181.65 31.8975 181.387 31.6334 181.208 31.3146C181.093 31.1081 181.03 30.9017 181.151 30.7894C181.151 30.7894 181.317 30.4007 182.162 30.2034L182.159 30.2064Z" fill="#F8FEFF"/>
<path d="M65.7729 20.093C65.7729 20.093 66.5087 22.5401 67.4049 23.8274C67.423 23.8517 67.4412 23.8729 67.4624 23.8942C67.6592 24.0854 68.7189 25.139 68.8945 25.6247C68.9066 25.6581 68.9187 25.6885 68.9368 25.7189C69.0216 25.8585 69.2941 26.3139 69.5939 26.8422C69.606 26.8635 69.6181 26.8817 69.6332 26.8999C69.7664 27.0699 70.4961 28.0263 70.7565 28.7792C70.7565 28.7792 71.2893 30.2032 71.9615 31.2021C72.0039 31.2658 72.0614 31.3174 72.131 31.3508C72.24 31.4024 72.4187 31.5178 72.5276 31.7425C72.564 31.8184 72.5912 31.955 72.57 32.037C72.5519 32.1068 72.5852 32.2859 72.9031 32.7626C72.9364 32.8142 72.9818 32.8567 73.0302 32.8901C73.2119 33.0116 73.6721 33.3607 73.7145 33.8009C73.7236 33.9011 73.7872 33.9892 73.875 34.0378C74.2776 34.2564 75.3767 34.7907 76.4939 34.7937C76.6059 34.7937 76.7845 34.812 76.8966 34.8271C77.272 34.8818 78.0047 34.9759 78.4255 34.9456C78.592 34.9334 78.7586 34.9304 78.9251 34.9456C79.2823 34.982 79.8455 35.0549 80.1271 35.1915C80.2724 35.2613 80.4238 35.3099 80.5782 35.3494C81.1595 35.4951 82.3494 35.7106 83.3909 35.3554C83.5483 35.3008 83.7088 35.2674 83.8723 35.2401C84.3385 35.1672 85.1621 35.0822 85.5799 35.319C85.6313 35.3494 85.6949 35.3038 85.6768 35.2461C85.2044 33.6734 81.9285 23.2232 77.929 20.6972L65.776 20.0869L65.7729 20.093Z" fill="#C8CCCC"/>
<path d="M88.2956 11.4678C88.2956 11.4678 89.11 13.423 89.5581 14.3156C89.6278 14.4553 89.7247 14.5798 89.8458 14.683C90.0638 14.8682 90.4392 15.2356 90.6027 15.6667C90.6572 15.8094 90.742 15.9399 90.851 16.0492C91.2415 16.447 92.1559 17.5187 92.6736 19.313C92.6736 19.313 92.8462 19.8747 93.0248 20.2633C93.0884 20.403 93.1792 20.5275 93.2943 20.6277C93.3972 20.7157 93.5547 20.9191 93.6303 21.3472C93.6394 21.4049 93.6546 21.4626 93.6727 21.5203C93.7696 21.7966 94.0845 22.6315 94.3842 22.6983C94.3842 22.6983 94.8051 23.1233 95.0866 23.8581C95.2289 24.2285 95.1684 24.6444 94.9353 24.9662C94.6386 25.37 94.1117 25.9226 93.2277 26.3446C93.2277 26.3446 92.5586 26.6877 92.5828 27.3556C92.5828 27.3556 92.7614 28.139 92.1619 28.6096C92.062 28.6885 91.9682 28.7765 91.8894 28.8798C91.623 29.235 90.9993 30.0578 90.5512 30.6286C90.4907 30.7045 90.4271 30.7743 90.3544 30.838C90.0335 31.1234 89.0798 31.9614 88.6196 32.2104C88.6196 32.2104 88.0655 32.4715 87.9384 33.0848C87.9141 33.1941 87.8808 33.3034 87.8354 33.4066C87.6568 33.8165 87.2178 34.7182 86.806 34.7728C86.806 34.7728 86.1187 34.9732 85.8432 35.2313C85.7524 35.3193 85.604 35.3041 85.5223 35.207C85.0772 34.6666 84.0478 33.3064 83.5694 31.8096C83.5452 31.7367 83.5301 31.6608 83.521 31.5819C83.4937 31.3238 83.3908 30.665 83.1002 30.4646C82.97 30.3766 82.8489 30.2733 82.758 30.1428C82.6339 29.9667 82.4765 29.7147 82.3705 29.4263C82.3463 29.3595 82.316 29.2927 82.2797 29.232C82.1162 28.9557 81.6166 28.1299 81.1413 27.4741C81.0686 27.3708 81.0111 27.2585 80.9717 27.1401C80.8597 26.797 80.5811 26.041 80.127 25.4672C80.127 25.4672 79.2883 24.4106 78.8281 23.0748" fill="#DCE2E2"/>
<path d="M87.3663 11.079C87.3663 11.079 87.0241 10.9697 86.4277 11.158C85.9978 11.2946 85.5375 11.3189 85.0925 11.2521C84.6474 11.1853 84.0691 11.1063 83.6513 11.0578C83.2789 11.0153 82.9186 10.909 82.5765 10.7542C82.2919 10.6266 81.9377 10.5052 81.6743 10.5295C81.6743 10.5295 81.3261 10.5781 80.6994 10.4475C80.5238 10.4111 80.3542 10.3595 80.1847 10.2987C79.7911 10.1591 78.8434 9.85244 78.4014 9.96781C78.4014 9.96781 77.7716 10.1227 77.2448 10.2714C76.9905 10.3443 76.724 10.3595 76.4667 10.2957C76.3002 10.2532 76.0761 10.2562 75.8642 10.4263C75.8642 10.4263 74.7228 11.6346 74.4896 12.0779C74.4896 12.0779 74.2716 12.5212 73.8659 12.9128C73.7842 12.9918 73.6934 13.0616 73.5995 13.1253C73.2665 13.3591 72.2461 14.1151 71.8525 14.8256C71.7769 14.9622 71.686 15.0867 71.5922 15.2111C71.4923 15.3447 71.3621 15.5056 71.2228 15.6635C70.9987 15.9125 70.7202 16.1068 70.4174 16.2495C70.1994 16.3527 69.8725 16.5531 69.6363 16.9053C69.6363 16.9053 69.4365 17.1512 69.2094 17.4062C69.0096 17.6309 68.7704 17.8191 68.507 17.9588C68.1891 18.1288 67.7319 18.4051 67.529 18.6844C67.4685 18.7694 67.4049 18.8545 67.3323 18.9273C67.2626 18.9972 67.1718 19.0882 67.0719 19.1854C66.8297 19.4161 66.542 19.5892 66.2332 19.7137C66.1 19.7683 65.9486 19.8564 65.8245 19.996C65.7427 20.0871 65.773 20.1934 65.8881 20.2328C66.2453 20.3512 67.0355 20.6215 67.5442 20.8735C67.744 20.9706 67.9529 21.0495 68.1649 21.1072C68.4888 21.1983 68.9097 21.2864 69.1579 21.2196C69.1579 21.2196 69.8028 21.004 70.1692 21.1892C70.1692 21.1892 70.7263 21.4898 71.0472 21.5809C71.2803 21.6446 71.5044 21.7357 71.7163 21.848C72.0645 22.0272 72.6064 22.2367 73.321 22.3004C73.769 22.3399 74.2141 22.431 74.6319 22.598C74.6471 22.604 74.6652 22.6101 74.6804 22.6162C74.9862 22.7346 75.3222 22.7589 75.6432 22.6921C75.9944 22.6162 76.6332 22.5251 77.0662 22.7042C77.1176 22.7255 77.1661 22.7467 77.2206 22.7589C77.4567 22.8166 78.1652 22.9926 78.6405 23.0928C78.7828 23.1232 78.9252 23.0777 79.0251 22.9714C79.5155 22.4583 80.9961 20.8826 81.3231 20.1812C81.3624 20.0962 81.5804 19.99 81.6319 19.911C81.8468 19.5922 82.3767 18.8514 82.855 18.5539C82.9429 18.4992 83.0428 18.4628 83.1457 18.4324C83.3153 18.3839 83.7331 18.229 83.7573 17.8617C83.7573 17.8617 84.051 16.0461 85.4195 15.4085C85.5921 15.3265 85.7555 15.2294 85.913 15.1201C86.2551 14.8802 86.5548 14.5159 86.6154 14.1849C86.6154 14.1849 86.9969 13.2377 87.7447 12.6548C87.993 12.4635 88.1868 12.2084 88.3048 11.917C88.3805 11.7287 88.4108 11.5466 88.2988 11.4616C88.2988 11.4616 88.1141 11.1489 87.3693 11.0699L87.3663 11.079Z" fill="#F8FEFF"/>
<path d="M69.091 65.3883C69.091 65.3883 69.0184 67.298 69.3393 68.4274C69.3454 68.4487 69.3545 68.4699 69.3635 68.4881C69.4574 68.6733 69.9509 69.6753 69.957 70.0608C69.957 70.0851 69.957 70.1124 69.963 70.1367C69.9872 70.2551 70.072 70.6438 70.1538 71.0931C70.1568 71.1113 70.1628 71.1265 70.1659 71.1447C70.2204 71.2996 70.505 72.1527 70.505 72.7478C70.505 72.7478 70.5352 73.8833 70.7684 74.7546C70.7835 74.8093 70.8108 74.8609 70.8531 74.9004C70.9167 74.9641 71.0166 75.0886 71.0378 75.2738C71.0469 75.3376 71.0318 75.4408 70.9954 75.4924C70.9652 75.5379 70.947 75.6746 71.053 76.0875C71.0651 76.133 71.0863 76.1725 71.1135 76.2089C71.2134 76.3395 71.4556 76.6977 71.3769 77.0226C71.3588 77.0955 71.383 77.1744 71.4345 77.2291C71.6676 77.481 72.3155 78.1277 73.1057 78.404C73.1844 78.4313 73.3086 78.486 73.3812 78.5255C73.6325 78.656 74.1291 78.9019 74.4349 78.9809C74.556 79.0143 74.674 79.0537 74.7891 79.1054C75.0343 79.2177 75.4128 79.409 75.5793 79.5729C75.6641 79.6579 75.761 79.7308 75.8609 79.7946C76.2363 80.0405 77.0265 80.4837 77.8501 80.4837C77.9742 80.4837 78.0983 80.4989 78.2194 80.5202C78.5676 80.5809 79.1701 80.7236 79.4093 80.9938C79.4396 81.0272 79.4941 81.009 79.4941 80.9665C79.5395 79.7399 79.7605 71.5455 77.5443 68.7826L69.0941 65.3853L69.091 65.3883Z" fill="#C8CCCC"/>
<path d="M87.118 64.7842C87.118 64.7842 87.2209 66.366 87.3178 67.1068C87.3329 67.2222 87.3723 67.3345 87.4329 67.4347C87.5418 67.6199 87.7175 67.9721 87.7296 68.3152C87.7326 68.4305 87.7629 68.5429 87.8113 68.6461C87.993 69.0226 88.3775 70.0032 88.3078 71.3998C88.3078 71.3998 88.2927 71.8401 88.323 72.1588C88.3351 72.2712 88.3684 72.3835 88.4259 72.4807C88.4774 72.5687 88.541 72.7509 88.4895 73.0727C88.4834 73.1152 88.4774 73.1608 88.4774 73.2063C88.4774 73.4249 88.5016 74.0928 88.6924 74.2143C88.6924 74.2143 88.8861 74.6181 88.9073 75.2071C88.9164 75.5046 88.7741 75.7839 88.5319 75.954C88.2261 76.1665 87.7175 76.4276 86.9908 76.5126C86.9908 76.5126 86.4337 76.5915 86.2884 77.0712C86.2884 77.0712 86.2248 77.6694 85.6859 77.8546C85.5951 77.8849 85.5073 77.9244 85.4285 77.979C85.153 78.1642 84.5142 78.5954 84.057 78.8899C83.9965 78.9293 83.9329 78.9627 83.8663 78.9901C83.5696 79.1145 82.6915 79.4758 82.307 79.5396C82.307 79.5396 81.8499 79.5882 81.6137 79.992C81.5713 80.0648 81.5198 80.1316 81.4623 80.1954C81.2352 80.4413 80.7084 80.9726 80.4026 80.9119C80.4026 80.9119 79.8667 80.8846 79.6124 81C79.5276 81.0394 79.4247 80.9939 79.3914 80.9028C79.2067 80.411 78.8101 79.1965 78.8343 78.0215C78.8343 77.9639 78.8434 77.9062 78.8555 77.8485C78.8979 77.6603 78.9857 77.1684 78.8282 76.9559C78.7586 76.8618 78.6981 76.7585 78.6648 76.6462C78.6193 76.4914 78.5709 76.2758 78.5648 76.045C78.5648 75.9904 78.5588 75.9388 78.5467 75.8841C78.4982 75.6504 78.3438 74.9429 78.1682 74.3631C78.141 74.272 78.1289 74.1778 78.1319 74.0837C78.1349 73.8135 78.1228 73.2093 77.9411 72.6962C77.9411 72.6962 77.6051 71.7429 77.6021 70.6863" fill="#DCE2E2"/>
<path d="M86.5517 64.2802C86.5517 64.2802 86.3368 64.1193 85.8675 64.1071C85.5284 64.098 85.1984 64.0039 84.8986 63.8491C84.5989 63.6942 84.2114 63.4969 83.9268 63.3602C83.6724 63.2388 83.4454 63.0749 83.2395 62.8836C83.0699 62.7227 82.8489 62.5496 82.6551 62.5041C82.6551 62.5041 82.3978 62.4555 81.986 62.2065C81.871 62.1367 81.762 62.0608 81.659 61.9758C81.4138 61.7815 80.8204 61.3352 80.4783 61.3078C80.4783 61.3078 79.9938 61.2623 79.5851 61.2411C79.3883 61.2289 79.1945 61.1743 79.031 61.068C78.922 60.9982 78.7646 60.9435 78.5708 61.0134C78.5708 61.0134 77.4718 61.5902 77.1993 61.8452C77.1993 61.8452 76.9389 62.1063 76.5544 62.2824C76.4787 62.3189 76.397 62.3462 76.3152 62.3705C76.0215 62.4555 75.1193 62.7409 74.6652 63.1477C74.5774 63.2267 74.4835 63.2935 74.3866 63.3572C74.2837 63.427 74.1535 63.509 74.0142 63.5849C73.7962 63.7064 73.551 63.7762 73.3027 63.8035C73.1241 63.8217 72.8425 63.8855 72.5912 64.0768C72.5912 64.0768 72.3884 64.2012 72.1673 64.3288C71.9705 64.4381 71.7586 64.514 71.5346 64.5474C71.2681 64.5899 70.8776 64.6718 70.6656 64.8206C70.602 64.8662 70.5354 64.9087 70.4658 64.9451C70.3992 64.9785 70.3114 65.021 70.2175 65.0635C69.9905 65.1667 69.7452 65.2183 69.4969 65.2335C69.391 65.2396 69.2608 65.2639 69.1397 65.3337C69.061 65.3793 69.0549 65.4612 69.1276 65.5159C69.3516 65.6859 69.8451 66.0715 70.1449 66.3751C70.2629 66.4935 70.3901 66.5998 70.5264 66.6939C70.7322 66.8366 71.0108 67.0036 71.2015 67.0157C71.2015 67.0157 71.7102 67.0218 71.9251 67.2404C71.9251 67.2404 72.2461 67.5895 72.4519 67.7322C72.6003 67.8354 72.7365 67.9539 72.8607 68.0844C73.0635 68.2969 73.3966 68.5763 73.8871 68.7949C74.1959 68.9315 74.4865 69.1045 74.7439 69.3262C74.753 69.3353 74.762 69.3444 74.7742 69.3505C74.9619 69.5083 75.192 69.6085 75.4372 69.6389C75.7036 69.6723 76.179 69.7603 76.4394 69.9941C76.4696 70.0214 76.4999 70.0488 76.5332 70.07C76.6846 70.1702 77.1448 70.4677 77.4567 70.6529C77.5505 70.7076 77.6625 70.7106 77.7594 70.6621C78.2317 70.4192 79.6608 69.6662 80.0635 69.2503C80.1119 69.1987 80.2905 69.1774 80.3481 69.1349C80.5782 68.9618 81.1322 68.5671 81.544 68.473C81.6197 68.4548 81.6984 68.4548 81.7771 68.4578C81.9103 68.4639 82.2404 68.4578 82.3493 68.2028C82.3493 68.2028 82.9973 66.9884 84.1205 66.873C84.2628 66.8578 84.4021 66.8275 84.5383 66.788C84.8381 66.7 85.1408 66.5178 85.262 66.2962C85.262 66.2962 85.7615 65.7193 86.4306 65.4885C86.6517 65.4126 86.8515 65.2791 87.0059 65.103C87.1058 64.9876 87.1724 64.8662 87.1119 64.7781C87.1119 64.7781 87.0574 64.5109 86.5487 64.2741L86.5517 64.2802Z" fill="#F8FEFF"/>
<path d="M162.019 4.40551C161.178 4.21728 160.318 4.30836 159.476 4.62715C158.768 4.22942 157.999 3.98653 157.184 3.93492C153.163 3.68899 149.621 8.18545 149.27 13.9753C148.919 19.7651 151.895 24.6563 155.916 24.9022C156.27 24.9234 156.618 24.9052 156.963 24.8566C157.124 24.9143 157.287 24.9659 157.457 25.0024C160.96 25.7826 164.82 21.8023 166.079 16.1157C167.339 10.4261 165.522 5.18275 162.019 4.40248V4.40551Z" fill="#967042"/>
<path d="M159.443 4.65438C159.443 4.65438 156.152 8.90187 157.126 16.4344C157.126 16.4344 158.192 21.9358 156.285 24.9689C156.285 24.9689 157.417 21.4531 156.021 16.5498C156.021 16.5498 152.882 5.9599 158.562 4.25361C158.734 4.202 159.44 4.65438 159.44 4.65438H159.443Z" fill="#754F29"/>
<path d="M166.076 16.128C166.933 12.2661 166.367 8.61062 164.82 6.41553C165.604 9.19052 166.155 15.4024 160.288 24.6746C162.837 23.5391 165.153 20.2935 166.073 16.131L166.076 16.128Z" fill="#825C33"/>
<path d="M113.595 28.0991C114.573 27.3978 115.726 27.0425 116.98 26.9909C117.673 26.0892 118.527 25.3575 119.544 24.8505C124.57 22.3366 131.561 26.1651 135.164 33.4032C138.764 40.6412 137.61 48.5472 132.587 51.0611C132.145 51.2827 131.688 51.4527 131.219 51.5772C131.043 51.7381 130.861 51.896 130.665 52.0357C126.595 54.9533 119.477 51.9628 114.763 45.3532C110.049 38.7436 109.528 31.0198 113.595 28.1021V28.0991Z" fill="#967042"/>
<path d="M117.037 27.0091C117.037 27.0091 123.574 30.6585 126.42 40.8567C126.42 40.8567 128.046 48.4985 132.148 51.3464C132.148 51.3464 128.784 47.4541 127.903 40.4013C127.903 40.4013 126.165 25.0963 117.948 26.0132C117.697 26.0406 117.04 27.0091 117.04 27.0091H117.037Z" fill="#754F29"/>
<path d="M114.769 45.3651C111.569 40.8778 110.304 35.8773 111.094 32.2158C111.6 36.2052 114.273 44.4756 126.847 53.1618C122.959 53.0981 118.221 50.2047 114.769 45.3651Z" fill="#825C33"/>
<defs>
<linearGradient id="paint0_linear_717_9110" x1="5.54063" y1="245.662" x2="314.969" y2="118.304" gradientUnits="userSpaceOnUse">
<stop stop-color="#6B7277"/>
<stop offset="0.12" stop-color="#52585B"/>
<stop offset="0.28" stop-color="#34383A"/>
<stop offset="0.45" stop-color="#1D1F20"/>
<stop offset="0.62" stop-color="#0D0D0E"/>
<stop offset="0.8" stop-color="#030303"/>
<stop offset="1"/>
</linearGradient>
<linearGradient id="paint1_linear_717_9110" x1="133.959" y1="160.685" x2="331.887" y2="235.367" gradientUnits="userSpaceOnUse">
<stop offset="0.02" stop-color="#3A3A3A"/>
<stop offset="1"/>
</linearGradient>
<linearGradient id="paint2_linear_717_9110" x1="91.9526" y1="239.077" x2="111.036" y2="238.195" gradientUnits="userSpaceOnUse">
<stop stop-color="#2B2B2B"/>
<stop offset="1" stop-color="#383B3E"/>
</linearGradient>
<linearGradient id="paint3_linear_717_9110" x1="197.558" y1="168.89" x2="110.232" y2="210.743" gradientUnits="userSpaceOnUse">
<stop stop-color="#333333"/>
<stop offset="0.92" stop-color="#26282A"/>
</linearGradient>
<linearGradient id="paint4_linear_717_9110" x1="214.239" y1="119.876" x2="181.004" y2="118.72" gradientUnits="userSpaceOnUse">
<stop stop-color="#54DAFF"/>
<stop offset="0.92" stop-color="#00A0C7"/>
</linearGradient>
<linearGradient id="paint5_linear_717_9110" x1="140.937" y1="191.787" x2="146.747" y2="97.2781" gradientUnits="userSpaceOnUse">
<stop offset="0.06" stop-color="#CBE6D5"/>
<stop offset="0.12" stop-color="#A5E2E2"/>
<stop offset="0.19" stop-color="#79DDF1"/>
<stop offset="0.26" stop-color="#5EDBFB"/>
<stop offset="0.29" stop-color="#54DAFF"/>
<stop offset="0.36" stop-color="#56D3F6"/>
<stop offset="0.6" stop-color="#5FBEDC"/>
<stop offset="0.83" stop-color="#64B2CC"/>
<stop offset="1" stop-color="#66AEC7"/>
</linearGradient>
<linearGradient id="paint6_linear_717_9110" x1="83.4163" y1="101.062" x2="201.915" y2="77.0361" gradientUnits="userSpaceOnUse">
<stop stop-color="#54DAFF"/>
<stop offset="0.2" stop-color="#48D4FA"/>
<stop offset="0.56" stop-color="#2AC7F0"/>
<stop offset="0.97" stop-color="#00B5E1"/>
</linearGradient>
</defs>
</svg>
