<svg width="272" height="384" viewBox="0 0 272 384" fill="none" xmlns="http://www.w3.org/2000/svg">
<g clip-path="url(#clip0_778_9156)">
<path d="M202.579 290.71H201.981C201.166 290.71 200.505 291.37 200.505 292.184V323.925C200.505 324.739 201.166 325.398 201.981 325.398H202.579C203.394 325.398 204.055 324.739 204.055 323.925V292.184C204.055 291.37 203.394 290.71 202.579 290.71Z" fill="#1E1E1E"/>
<path d="M68.0642 290.71H67.4656C66.6505 290.71 65.9897 291.37 65.9897 292.184V306.579C65.9897 307.392 66.6505 308.052 67.4656 308.052H68.0642C68.8793 308.052 69.5401 307.392 69.5401 306.579V292.184C69.5401 291.37 68.8793 290.71 68.0642 290.71Z" fill="#1E1E1E"/>
<path d="M68.0642 264.785H67.4656C66.6505 264.785 65.9897 265.445 65.9897 266.258V274.624C65.9897 275.437 66.6505 276.097 67.4656 276.097H68.0642C68.8793 276.097 69.5401 275.437 69.5401 274.624V266.258C69.5401 265.445 68.8793 264.785 68.0642 264.785Z" fill="#1E1E1E"/>
<path d="M68.0642 308.052H67.4656C66.6505 308.052 65.9897 308.712 65.9897 309.525V323.921C65.9897 324.734 66.6505 325.394 67.4656 325.394H68.0642C68.8793 325.394 69.5401 324.734 69.5401 323.921V309.525C69.5401 308.712 68.8793 308.052 68.0642 308.052Z" fill="#1E1E1E"/>
<path d="M189.319 224.747H80.7304C73.7932 224.747 68.1694 230.361 68.1694 237.286V467.355C68.1694 474.28 73.7932 479.894 80.7304 479.894H189.319C196.256 479.894 201.88 474.28 201.88 467.355V237.286C201.88 230.361 196.256 224.747 189.319 224.747Z" fill="url(#paint0_linear_778_9156)" stroke="#1E1E1E" stroke-width="4" stroke-miterlimit="10"/>
<path opacity="0.1" d="M70 311L200 244.5V269.5L70 340V311Z" fill="#919191"/>
<path opacity="0.1" d="M69.2842 416.54L200 350V374.5L69.2842 445.389V416.54Z" fill="#919191"/>
<path opacity="0.1" d="M70 355.5L200 286V302L70 371.5V355.5Z" fill="#919191"/>
<path d="M170.763 285.816L170.128 298.172C170.128 298.172 183.018 291.96 180.742 307.728C178.467 323.496 168.227 314.547 168.227 314.547L164.992 325.79C164.992 325.79 188.775 336.587 192.623 309.904C196.47 283.221 170.754 285.812 170.754 285.812L170.763 285.816Z" fill="url(#paint1_linear_778_9156)"/>
<path d="M167.51 337.198L176.31 278.924C176.973 274.541 175.209 270.112 171.659 267.453C158.49 257.596 129.955 258.089 129.955 258.089C129.955 258.089 103.832 258.107 91.6552 268.265C88.347 271.024 86.7752 275.344 87.4926 279.586L97.3759 337.982C98.436 344.24 103.38 349.121 109.663 350.106L110.609 350.288C125.5 353.148 140.816 352.984 155.643 349.805C161.844 348.478 166.568 343.456 167.514 337.198H167.51Z" fill="url(#paint2_linear_778_9156)"/>
<path d="M176.311 275.654C176.369 265.318 156.523 256.829 131.985 256.692C107.446 256.555 87.5068 264.823 87.4489 275.158C87.3911 285.494 107.237 293.983 131.775 294.12C156.314 294.257 176.253 285.989 176.311 275.654Z" fill="url(#paint3_linear_778_9156)"/>
<path d="M133.254 267.498C114.703 267.22 99.2632 271.996 98.7651 278.158C98.7332 278.546 98.7652 278.929 98.8474 279.312C104.171 283.782 116.494 287.02 131.093 287.239C146.939 287.476 160.688 284.083 165.938 279.157C166.432 272.995 151.801 267.777 133.254 267.503V267.498Z" fill="#A37F4F"/>
<path d="M98.7652 278.158C99.2633 271.996 114.707 267.225 133.254 267.498C151.801 267.777 166.427 272.995 165.938 279.152C167.291 277.884 168.077 276.516 168.195 275.084C168.762 268.078 153.071 262.153 133.149 261.856C113.227 261.56 96.6131 267.001 96.0465 274.007C95.8957 275.882 96.9055 277.674 98.8475 279.307C98.7606 278.929 98.7332 278.541 98.7652 278.153V278.158Z" fill="#F8F5ED"/>
<path d="M152.856 279.148C142.219 284.466 129.9 283.664 121.529 283.586C120.885 283.581 120.826 284.516 121.465 284.603C132.815 286.067 144.545 284.475 153.066 282.66H153.071C156.018 282.031 157.448 281.689 159.477 281.118C160.268 280.899 161.967 280.119 162.296 279.545C163.005 278.322 162.657 276.626 161.218 275.791C158.17 273.355 150.965 272.548 148.753 272.356C148.154 272.302 147.547 272.411 147.021 272.703C146.212 273.159 146.135 273.761 146.313 274.299C146.573 275.089 147.286 275.421 148.168 275.681C148.168 275.681 155.671 277.739 152.847 279.153L152.856 279.148Z" fill="#967042"/>
<path d="M110.81 277.666C119.327 282.044 128.835 281.232 135.319 281.077C135.822 281.064 135.913 281.857 135.42 281.935C126.701 283.29 117.526 282.072 110.828 280.63H110.823C108.507 280.133 107.378 279.855 105.779 279.399C105.153 279.221 103.796 278.582 103.512 278.099C102.9 277.077 103.078 275.636 104.152 274.92C106.386 272.831 111.929 272.078 113.633 271.887C114.095 271.836 114.575 271.919 114.995 272.16C115.648 272.534 115.735 273.041 115.626 273.501C115.461 274.167 114.931 274.459 114.259 274.687C114.259 274.687 108.552 276.503 110.814 277.666H110.81Z" fill="#C49F7A"/>
<path d="M206.536 144.625C230.709 144.625 250.305 125.064 250.305 100.934C250.305 76.804 230.709 57.2427 206.536 57.2427C182.363 57.2427 162.767 76.804 162.767 100.934C162.767 125.064 182.363 144.625 206.536 144.625Z" fill="url(#paint4_linear_778_9156)"/>
<path d="M186.847 161.064C188.672 161.064 190.151 159.587 190.151 157.766C190.151 155.945 188.672 154.468 186.847 154.468C185.023 154.468 183.543 155.945 183.543 157.766C183.543 159.587 185.023 161.064 186.847 161.064Z" fill="#BAFFFE"/>
<path d="M181.697 177.502C183.522 177.502 185.001 176.026 185.001 174.204C185.001 172.383 183.522 170.907 181.697 170.907C179.873 170.907 178.394 172.383 178.394 174.204C178.394 176.026 179.873 177.502 181.697 177.502Z" fill="#BAFFFE"/>
<path d="M176.552 193.941C178.377 193.941 179.856 192.464 179.856 190.643C179.856 188.822 178.377 187.345 176.552 187.345C174.728 187.345 173.249 188.822 173.249 190.643C173.249 192.464 174.728 193.941 176.552 193.941Z" fill="#BAFFFE"/>
<path d="M171.407 210.379C173.232 210.379 174.711 208.903 174.711 207.081C174.711 205.26 173.232 203.784 171.407 203.784C169.583 203.784 168.104 205.26 168.104 207.081C168.104 208.903 169.583 210.379 171.407 210.379Z" fill="#BAFFFE"/>
<path d="M166.258 226.818C168.082 226.818 169.561 225.341 169.561 223.52C169.561 221.699 168.082 220.222 166.258 220.222C164.433 220.222 162.954 221.699 162.954 223.52C162.954 225.341 164.433 226.818 166.258 226.818Z" fill="#BAFFFE"/>
<path d="M161.113 243.256C162.937 243.256 164.416 241.78 164.416 239.958C164.416 238.137 162.937 236.661 161.113 236.661C159.288 236.661 157.809 238.137 157.809 239.958C157.809 241.78 159.288 243.256 161.113 243.256Z" fill="#BAFFFE"/>
<path d="M69.5398 182.164C100.731 182.164 126.016 156.924 126.016 125.788C126.016 94.6525 100.731 69.4121 69.5398 69.4121C38.3488 69.4121 13.0635 94.6525 13.0635 125.788C13.0635 156.924 38.3488 182.164 69.5398 182.164Z" fill="url(#paint5_linear_778_9156)"/>
<path d="M92.1529 197.718C94.1566 197.718 95.7809 196.096 95.7809 194.096C95.7809 192.096 94.1566 190.475 92.1529 190.475C90.1492 190.475 88.5249 192.096 88.5249 194.096C88.5249 196.096 90.1492 197.718 92.1529 197.718Z" fill="#FCF5CA"/>
<path d="M98.5181 214.102C100.522 214.102 102.146 212.48 102.146 210.48C102.146 208.48 100.522 206.858 98.5181 206.858C96.5145 206.858 94.8901 208.48 94.8901 210.48C94.8901 212.48 96.5145 214.102 98.5181 214.102Z" fill="#FCF5CA"/>
<path d="M104.883 230.49C106.887 230.49 108.511 228.868 108.511 226.868C108.511 224.868 106.887 223.247 104.883 223.247C102.879 223.247 101.255 224.868 101.255 226.868C101.255 228.868 102.879 230.49 104.883 230.49Z" fill="#FCF5CA"/>
<path d="M111.253 246.878C113.256 246.878 114.881 245.256 114.881 243.256C114.881 241.256 113.256 239.635 111.253 239.635C109.249 239.635 107.625 241.256 107.625 243.256C107.625 245.256 109.249 246.878 111.253 246.878Z" fill="#FCF5CA"/>
<path d="M230.63 84.7964C230.63 84.7964 231.188 89.613 230.594 92.5321C230.584 92.5869 230.566 92.6416 230.543 92.6918C230.342 93.1752 229.282 95.807 229.342 96.7877C229.342 96.8515 229.346 96.92 229.342 96.9838C229.3 97.2894 229.168 98.2883 229.04 99.4377C229.035 99.4833 229.026 99.5244 229.017 99.57C228.912 99.9714 228.355 102.184 228.473 103.689C228.473 103.689 228.62 106.567 228.195 108.815C228.167 108.957 228.108 109.089 228.012 109.199C227.861 109.372 227.637 109.709 227.614 110.179C227.605 110.343 227.665 110.599 227.765 110.727C227.847 110.832 227.925 111.174 227.733 112.241C227.71 112.355 227.669 112.464 227.605 112.565C227.377 112.911 226.833 113.869 227.093 114.672C227.153 114.854 227.112 115.055 226.993 115.206C226.454 115.89 224.932 117.65 222.981 118.499C222.789 118.581 222.483 118.75 222.305 118.859C221.688 119.238 220.477 119.954 219.719 120.218C219.417 120.323 219.125 120.446 218.846 120.602C218.247 120.935 217.32 121.486 216.927 121.938C216.726 122.166 216.497 122.371 216.255 122.554C215.35 123.247 213.427 124.52 211.339 124.688C211.023 124.711 210.713 124.775 210.411 124.853C209.538 125.076 208.04 125.555 207.482 126.28C207.414 126.371 207.272 126.339 207.258 126.225C206.902 123.133 204.741 102.462 209.835 95.0453L230.635 84.8009L230.63 84.7964Z" fill="#C8CCCC"/>
<path d="M184.727 86.79C184.727 86.79 184.773 90.8084 184.672 92.7013C184.654 92.9978 184.581 93.2897 184.448 93.5542C184.211 94.0423 183.831 94.9636 183.868 95.8394C183.882 96.1313 183.831 96.4187 183.726 96.6923C183.342 97.6775 182.552 100.236 183 103.748C183 103.748 183.123 104.857 183.105 105.669C183.096 105.961 183.032 106.243 182.908 106.503C182.794 106.736 182.671 107.206 182.867 108.013C182.895 108.123 182.913 108.232 182.922 108.346C182.959 108.903 183.036 110.59 182.57 110.937C182.57 110.937 182.154 111.99 182.214 113.487C182.246 114.239 182.662 114.919 183.315 115.302C184.137 115.781 185.476 116.342 187.341 116.41C187.341 116.41 188.771 116.506 189.232 117.683C189.232 117.683 189.511 119.179 190.914 119.548C191.151 119.612 191.38 119.694 191.595 119.813C192.33 120.228 194.039 121.195 195.255 121.847C195.414 121.934 195.584 122.007 195.757 122.062C196.534 122.317 198.837 123.056 199.824 123.143C199.824 123.143 200.994 123.179 201.674 124.151C201.798 124.324 201.939 124.488 202.095 124.634C202.716 125.213 204.165 126.449 204.923 126.235C204.923 126.235 206.28 126.062 206.952 126.308C207.176 126.39 207.427 126.253 207.491 126.021C207.861 124.744 208.638 121.596 208.341 118.632C208.327 118.486 208.295 118.34 208.254 118.198C208.108 117.728 207.788 116.501 208.149 115.936C208.309 115.68 208.441 115.411 208.505 115.119C208.592 114.718 208.67 114.162 208.643 113.578C208.633 113.441 208.638 113.304 208.656 113.172C208.734 112.57 208.985 110.75 209.323 109.254C209.374 109.021 209.387 108.779 209.364 108.542C209.301 107.863 209.218 106.335 209.579 104.994C209.579 104.994 210.246 102.522 210.045 99.8487" fill="#DCE2E2"/>
<path d="M186.061 85.4078C186.061 85.4078 186.577 84.9608 187.765 84.8377C188.62 84.7464 189.442 84.4454 190.173 83.9938C190.904 83.5423 191.855 82.9676 192.549 82.5662C193.166 82.2104 193.719 81.7543 194.199 81.2298C194.601 80.7919 195.126 80.313 195.611 80.1579C195.611 80.1579 196.26 79.98 197.256 79.2776C197.534 79.0815 197.795 78.8625 198.042 78.6299C198.622 78.0917 200.048 76.8419 200.911 76.7051C200.911 76.7051 202.131 76.4998 203.164 76.3585C203.662 76.29 204.142 76.1167 204.539 75.8111C204.8 75.6104 205.188 75.4462 205.695 75.5831C205.695 75.5831 208.601 76.8283 209.341 77.4212C209.341 77.4212 210.054 78.0324 211.064 78.4019C211.265 78.4748 211.475 78.5296 211.69 78.5752C212.449 78.7303 214.802 79.2776 216.031 80.2172C216.264 80.3951 216.52 80.5502 216.776 80.6961C217.054 80.8512 217.402 81.0382 217.763 81.2024C218.343 81.467 218.974 81.5947 219.613 81.6129C220.075 81.6266 220.797 81.7315 221.473 82.1648C221.473 82.1648 222.012 82.443 222.602 82.7167C223.122 82.9585 223.675 83.1044 224.246 83.15C224.932 83.2048 225.942 83.3416 226.504 83.6746C226.677 83.7749 226.846 83.8753 227.034 83.9482C227.207 84.0167 227.436 84.1079 227.683 84.1991C228.277 84.418 228.912 84.5001 229.547 84.4864C229.821 84.4819 230.15 84.5184 230.474 84.6689C230.685 84.7647 230.712 84.9745 230.538 85.1296C229.999 85.6039 228.829 86.6712 228.126 87.4968C227.852 87.8207 227.545 88.108 227.216 88.3771C226.718 88.7785 226.047 89.2529 225.562 89.3213C225.562 89.3213 224.269 89.4353 223.771 90.0328C223.771 90.0328 223.026 90.977 222.528 91.3784C222.172 91.6657 221.848 91.9941 221.555 92.3499C221.085 92.9246 220.294 93.7 219.088 94.3477C218.329 94.7536 217.626 95.2508 217.018 95.8574C216.995 95.8802 216.972 95.903 216.949 95.9259C216.502 96.3637 215.935 96.6602 215.323 96.7834C214.651 96.9202 213.463 97.2395 212.846 97.878C212.773 97.951 212.7 98.0286 212.618 98.0878C212.248 98.3706 211.142 99.2099 210.388 99.739C210.164 99.8986 209.876 99.926 209.625 99.8211C208.382 99.3011 204.599 97.6728 203.502 96.7013C203.369 96.5827 202.908 96.5599 202.757 96.4641C202.14 96.0718 200.655 95.1824 199.591 95.0273C199.394 94.9999 199.193 95.0091 198.992 95.0364C198.659 95.082 197.813 95.1277 197.489 94.5028C197.489 94.5028 195.602 91.5608 192.732 91.4878C192.367 91.4787 192.006 91.4285 191.649 91.3556C190.872 91.1959 190.068 90.79 189.716 90.2563C189.716 90.2563 188.332 88.8971 186.586 88.4455C186.011 88.295 185.476 87.9985 185.051 87.5835C184.772 87.3144 184.585 87.0179 184.722 86.7853C184.722 86.7853 184.804 86.1011 186.052 85.4032L186.061 85.4078Z" fill="#F8FEFF"/>
<path d="M56.2292 101.723C57.929 100.359 59.9806 99.5977 62.2469 99.3787C63.4075 97.6865 64.8834 96.2771 66.6746 95.2554C75.5207 90.2062 88.5797 96.3957 95.8403 109.08C103.105 121.765 101.821 136.137 92.9753 141.186C92.1986 141.629 91.3852 141.985 90.5491 142.258C90.2475 142.568 89.9368 142.869 89.5941 143.143C82.5208 148.822 69.3202 144.151 60.104 132.716C50.8923 121.281 49.156 107.406 56.2246 101.728L56.2292 101.723Z" fill="#967042"/>
<path d="M62.3521 99.4015C62.3521 99.4015 74.5612 105.313 80.7617 123.411C80.7617 123.411 84.4902 137.027 92.2077 141.738C92.2077 141.738 85.7148 135.065 83.3981 122.435C83.3981 122.435 78.6872 95.0137 63.8965 97.5086C63.4441 97.5862 62.3521 99.3969 62.3521 99.3969V99.4015Z" fill="#754F29"/>
<path d="M60.1223 132.73C53.8669 124.962 51.0614 116.077 52.1169 109.395C53.4374 116.538 59.1307 131.179 82.795 145.556C75.7446 145.843 66.8665 141.104 60.1223 132.735V132.73Z" fill="#825C33"/>
<path d="M66.1356 121.09C64.6141 120.529 62.9828 120.479 61.3333 120.857C60.1133 119.936 58.738 119.288 57.2301 118.992C49.7913 117.519 42.0418 124.972 39.9217 135.636C37.8015 146.304 42.1149 156.143 49.5537 157.616C50.2071 157.744 50.8651 157.803 51.5231 157.798C51.8064 157.949 52.0988 158.081 52.4049 158.195C58.7425 160.53 66.9535 154.117 70.746 143.873C74.5385 133.624 72.4732 123.425 66.1356 121.09Z" fill="#967042"/>
<path d="M61.2648 120.898C61.2648 120.898 54.0499 127.955 53.9631 142.19C53.9631 142.19 54.5617 152.681 50.23 157.83C50.23 157.83 53.232 151.586 51.8703 142.126C51.8703 142.126 48.6947 121.66 59.7249 119.927C60.0631 119.872 61.2648 120.894 61.2648 120.894V120.898Z" fill="#754F29"/>
<path d="M70.7414 143.896C73.3184 136.935 73.1905 130.002 70.8602 125.537C71.6187 130.892 71.0749 142.564 57.7783 158.305C62.8228 156.84 67.9632 151.399 70.7414 143.9V143.896Z" fill="#825C33"/>
</g>
<defs>
<linearGradient id="paint0_linear_778_9156" x1="135.023" y1="489.951" x2="135.023" y2="205.321" gradientUnits="userSpaceOnUse">
<stop stop-color="#111111"/>
<stop offset="0.46" stop-color="#121212"/>
<stop offset="0.63" stop-color="#191919"/>
<stop offset="0.75" stop-color="#252525"/>
<stop offset="0.84" stop-color="#363636"/>
<stop offset="0.93" stop-color="#4C4C4C"/>
<stop offset="1" stop-color="#686868"/>
</linearGradient>
<linearGradient id="paint1_linear_778_9156" x1="184.804" y1="308.707" x2="157.826" y2="303.99" gradientUnits="userSpaceOnUse">
<stop stop-color="#54DAFF"/>
<stop offset="0.92" stop-color="#00A0C7"/>
</linearGradient>
<linearGradient id="paint2_linear_778_9156" x1="116.891" y1="358.821" x2="132.218" y2="282.717" gradientUnits="userSpaceOnUse">
<stop offset="0.06" stop-color="#CBE6D5"/>
<stop offset="0.12" stop-color="#A5E2E2"/>
<stop offset="0.19" stop-color="#79DDF1"/>
<stop offset="0.26" stop-color="#5EDBFB"/>
<stop offset="0.29" stop-color="#54DAFF"/>
<stop offset="0.36" stop-color="#56D3F6"/>
<stop offset="0.6" stop-color="#5FBEDC"/>
<stop offset="0.83" stop-color="#64B2CC"/>
<stop offset="1" stop-color="#66AEC7"/>
</linearGradient>
<linearGradient id="paint3_linear_778_9156" x1="80.212" y1="278.645" x2="179.576" y2="272.396" gradientUnits="userSpaceOnUse">
<stop stop-color="#54DAFF"/>
<stop offset="0.2" stop-color="#48D4FA"/>
<stop offset="0.56" stop-color="#2AC7F0"/>
<stop offset="0.97" stop-color="#00B5E1"/>
</linearGradient>
<linearGradient id="paint4_linear_778_9156" x1="195.588" y1="130.413" x2="225.924" y2="48.4227" gradientUnits="userSpaceOnUse">
<stop stop-color="#BAFFFE"/>
<stop offset="1" stop-color="#FCF5CA"/>
</linearGradient>
<linearGradient id="paint5_linear_778_9156" x1="49.6116" y1="73.7547" x2="89.8446" y2="179.146" gradientUnits="userSpaceOnUse">
<stop stop-color="#54DAFF"/>
<stop offset="0.09" stop-color="#70DEF6"/>
<stop offset="0.23" stop-color="#9AE5E8"/>
<stop offset="0.38" stop-color="#BDEBDD"/>
<stop offset="0.53" stop-color="#D9EFD4"/>
<stop offset="0.68" stop-color="#ECF2CE"/>
<stop offset="0.84" stop-color="#F8F4CB"/>
<stop offset="1" stop-color="#FCF5CA"/>
</linearGradient>
<clipPath id="clip0_778_9156">
<rect width="272" height="384" fill="white"/>
</clipPath>
</defs>
</svg>
