<svg width="177" height="277" viewBox="0 0 177 277" fill="none" xmlns="http://www.w3.org/2000/svg">
<path d="M8.57812 3.53125V6.25H10.1367V7.02344H8.57812V9.75391H7.65234V3.53125H8.57812ZM5.22656 9.95312C7.34766 9.95312 8.66016 10.6914 8.66016 11.9336C8.66016 13.1992 7.34766 13.9258 5.22656 13.9258C3.09375 13.9258 1.76953 13.1992 1.76953 11.9336C1.76953 10.6914 3.09375 9.95312 5.22656 9.95312ZM5.22656 10.7148C3.65625 10.7031 2.67188 11.1719 2.67188 11.9336C2.67188 12.707 3.65625 13.1875 5.22656 13.1875C6.78516 13.1875 7.76953 12.707 7.76953 11.9336C7.76953 11.1719 6.78516 10.7031 5.22656 10.7148ZM5.53125 4.32812V5.08984H1.80469V8.14844C3.91406 8.13672 5.13281 8.07227 6.52734 7.78516L6.62109 8.54688C5.16797 8.83984 3.91406 8.89844 1.71094 8.89844H0.902344V4.32812H5.53125ZM20.3203 9.75391V10.4922H17.8125V13.9492H16.8984V10.4922H14.2031V13.9492H13.2773V10.4922H10.7812V9.75391H20.3203ZM19.1602 3.94141V6.61328H12.8789V7.91406H19.3828V8.67578H11.9531V5.89844H18.2227V4.70312H11.9297V3.94141H19.1602ZM32.8008 3.53125V9.23828H31.8867V6.30859H29.5664V5.54688H31.8867V3.53125H32.8008ZM27.0234 9.74219V11.0195H31.8867V9.74219H32.8008V13.8086H26.0977V9.74219H27.0234ZM27.0234 13.0586H31.8867V11.7461H27.0234V13.0586ZM27.7266 5.07812C27.7148 6.46094 28.7812 7.72656 30.293 8.23047L29.8242 8.95703C28.6465 8.54102 27.7266 7.69727 27.2812 6.625C26.8242 7.79688 25.8867 8.73438 24.668 9.17969L24.1875 8.45312C25.7344 7.91406 26.8125 6.53125 26.8242 5.03125V3.92969H27.7266V5.07812ZM38.4727 5.5C38.4727 6.55469 39.5156 7.44531 40.9922 7.77344L40.6172 8.51172C39.416 8.21875 38.4902 7.58008 38.0391 6.73047C37.5879 7.65039 36.6504 8.34766 35.4141 8.65234L35.0156 7.91406C36.5156 7.58594 37.5586 6.61328 37.5586 5.5V5.45312H35.2383V4.72656H37.5586V3.56641H38.4727V4.72656H40.793V5.45312H38.4727V5.5ZM43.1367 3.54297V13.9609H42.2344V3.54297H43.1367ZM34.5234 9.39062C36.5156 9.39062 39.1641 9.36719 41.4727 9.07422L41.5312 9.74219C40.5352 9.90625 39.5039 10.0059 38.4961 10.0586V13.6445H37.582V10.1055C36.5273 10.1582 35.5254 10.1641 34.6523 10.1641L34.5234 9.39062ZM54.6445 5.17188V5.94531H53.0625V7.36328H54.6445V8.14844H53.0625V9.84766H52.1484V3.54297H53.0625V5.17188H54.6445ZM50.0859 4.1875V7H46.2891V8.45312C48.1406 8.45312 49.4824 8.38867 51.1055 8.11328L51.1992 8.88672C49.5234 9.16797 48.1289 9.22656 46.1953 9.22656H45.3867V6.27344H49.1836V4.94922H45.3633V4.1875H50.0859ZM49.7227 10.1523C51.8438 10.1523 53.1562 10.8555 53.1562 12.0508C53.1562 13.2461 51.8438 13.9258 49.7227 13.9258C47.5664 13.9258 46.2656 13.2461 46.2656 12.0508C46.2656 10.8555 47.5664 10.1523 49.7227 10.1523ZM49.7227 10.8789C48.1289 10.8789 47.1562 11.3125 47.168 12.0508C47.1562 12.7773 48.1289 13.2109 49.7227 13.2109C51.3047 13.2109 52.2656 12.7773 52.2656 12.0508C52.2656 11.3125 51.3047 10.8789 49.7227 10.8789Z" fill="white"/>
<path d="M0.826172 35.627V33.7988L6.32812 25.2734H9.17578V33.7461H10.8457V35.627H9.17578V38H6.99609V35.627H0.826172ZM3.16406 33.7461H7.03125V27.875H6.89062L3.16406 33.6582V33.7461ZM17.1914 25.0977C19.6875 25.1152 22.1484 26.5918 22.166 31.25C22.166 35.6445 20.1797 38.1758 17.0508 38.1758C14.5898 38.1758 12.9023 36.6465 12.6211 34.5371H14.8887C15.1172 35.5391 15.8906 36.1895 17.0508 36.1895C18.8965 36.1895 19.9336 34.5547 19.9512 31.8301H19.8105C19.1602 32.9375 17.9473 33.5879 16.541 33.5879C14.2734 33.5879 12.5156 31.8652 12.498 29.457C12.498 26.9609 14.3613 25.0801 17.1914 25.0977ZM17.209 26.9434C15.7852 26.9434 14.7129 28.0508 14.7305 29.4043C14.7305 30.7754 15.75 31.8477 17.1738 31.8477C18.5801 31.8477 19.6875 30.7051 19.6699 29.3867C19.6699 28.0859 18.6328 26.9434 17.209 26.9434ZM28.248 41.7793C25.7168 41.7793 24.1172 40.6543 23.959 38.8613H26.1914C26.3496 39.6875 27.1406 40.0918 28.2832 40.0918C29.6191 40.0918 30.498 39.5117 30.498 38.1055V36.2773H30.3926C30.041 36.9805 29.2852 37.8594 27.6328 37.8594C25.4355 37.8594 23.6953 36.2598 23.6953 33.1484C23.6953 30.002 25.4355 28.332 27.6504 28.332C29.3379 28.332 30.041 29.334 30.3926 30.0195H30.498V28.4551H32.7129V38.1582C32.7129 40.6016 30.832 41.7793 28.248 41.7793ZM28.248 36.1016C29.6895 36.1016 30.5156 35.0117 30.5156 33.1836C30.5156 31.373 29.707 30.1602 28.248 30.1602C26.7539 30.1602 25.9805 31.4434 25.9805 33.1836C25.9805 34.9414 26.7715 36.1016 28.248 36.1016Z" fill="#54DAFF"/>
<path d="M59.9805 152L59.9727 151.484L61.9023 149.453C62.5742 148.742 62.8945 148.359 62.8945 147.836C62.8945 147.258 62.4023 146.875 61.7695 146.875C61.0977 146.875 60.668 147.305 60.668 147.938H60.0039C59.9961 146.938 60.7695 146.266 61.793 146.266C62.8164 146.266 63.5508 146.953 63.5508 147.836C63.5508 148.469 63.2539 148.961 62.2539 149.992L60.957 151.328V151.375H63.6523V152H59.9805ZM66.5195 152.078C65.4961 152.078 64.7227 151.445 64.6836 150.578H65.3633C65.418 151.086 65.9102 151.461 66.5195 151.461C67.2539 151.461 67.7852 150.922 67.7852 150.211C67.7852 149.477 67.2305 148.938 66.4727 148.93C65.9961 148.922 65.6289 149.07 65.418 149.438H64.7383L65.1367 146.344H68.1992V146.969H65.7227L65.5117 148.625H65.5664C65.8164 148.43 66.1992 148.297 66.5977 148.297C67.6758 148.297 68.4727 149.094 68.4727 150.195C68.4727 151.289 67.6445 152.078 66.5195 152.078ZM71.1758 153.68C70.1523 153.68 69.457 153.234 69.3789 152.445H70.082C70.1758 152.875 70.5742 153.094 71.1758 153.094C71.9023 153.094 72.3477 152.781 72.3477 152.078V151.219H72.293C72.1523 151.453 71.8789 151.938 71.0586 151.938C70.0273 151.938 69.2539 151.156 69.2539 149.82C69.2539 148.516 70.0039 147.703 71.0664 147.703C71.8867 147.703 72.1523 148.203 72.3086 148.43H72.3633V147.758H73.0195V152.117C73.0195 153.211 72.207 153.68 71.1758 153.68ZM71.1523 151.336C71.9258 151.336 72.3633 150.781 72.3633 149.844C72.3633 148.938 71.9414 148.305 71.1523 148.305C70.3398 148.305 69.9336 148.992 69.9336 149.844C69.9336 150.727 70.3477 151.336 71.1523 151.336Z" fill="#C1C7CA"/>
<path d="M48.5 161C48.5 158.791 50.2909 157 52.5 157H80.5C82.7091 157 84.5 158.791 84.5 161V257H48.5V161Z" fill="#505659"/>
<path d="M92.5 61C92.5 58.7909 94.2909 57 96.5 57H124.5C126.709 57 128.5 58.7909 128.5 61V257H92.5V61Z" fill="#54DAFF"/>
<mask id="path-6-inside-1_1161_9678" fill="white">
<path d="M0 257H177V277H0V257Z"/>
</mask>
<path d="M0 257V258H177V257V256H0V257Z" fill="#33393C" mask="url(#path-6-inside-1_1161_9678)"/>
<path d="M57.8789 263.688V270.633H57.2773V267.039H56.2773V270.273H55.6992V263.844H56.2773V266.516H57.2773V263.688H57.8789ZM52.9102 264.539V268.289C53.6016 268.281 54.3359 268.234 55.1836 268.062L55.2617 268.609C54.293 268.781 53.4961 268.836 52.7305 268.836H52.3008V264.539H52.9102ZM66.6133 263.688V270.633H65.9961V263.688H66.6133ZM64.5586 264.445C64.5508 266.445 63.6211 268.211 61.293 269.328L60.957 268.828C62.8359 267.938 63.793 266.605 63.9336 264.945H61.2773V264.445H64.5586ZM71.3477 264.555C71.3398 265.406 72.5117 266.102 73.7383 266.273L73.4961 266.758C72.375 266.598 71.3281 266.035 70.9492 265.219C70.5742 266.035 69.5312 266.598 68.4023 266.758L68.1758 266.273C69.4023 266.102 70.5508 265.406 70.5508 264.555V264.539H68.3633V264.039H73.5508V264.539H71.3477V264.555ZM74.1367 267.266V267.773H71.3086V269.195H70.6992V267.773H67.7773V267.266H74.1367ZM73.4258 269.969V270.484H68.5898V268.5H69.207V269.969H73.4258ZM81.1836 264.781V265.297H80.1289V266.242H81.1836V266.766H80.1289V267.898H79.5195V263.695H80.1289V264.781H81.1836ZM78.1445 264.125V266H75.6133V266.969C76.8477 266.969 77.7422 266.926 78.8242 266.742L78.8867 267.258C77.7695 267.445 76.8398 267.484 75.5508 267.484H75.0117V265.516H77.543V264.633H74.9961V264.125H78.1445ZM77.9023 268.102C79.3164 268.102 80.1914 268.57 80.1914 269.367C80.1914 270.164 79.3164 270.617 77.9023 270.617C76.4648 270.617 75.5977 270.164 75.5977 269.367C75.5977 268.57 76.4648 268.102 77.9023 268.102ZM77.9023 268.586C76.8398 268.586 76.1914 268.875 76.1992 269.367C76.1914 269.852 76.8398 270.141 77.9023 270.141C78.957 270.141 79.5977 269.852 79.5977 269.367C79.5977 268.875 78.957 268.586 77.9023 268.586Z" fill="#C1C7CA"/>
<path d="M101.879 263.688V270.633H101.277V267.039H100.277V270.273H99.6992V263.844H100.277V266.516H101.277V263.688H101.879ZM96.9102 264.539V268.289C97.6016 268.281 98.3359 268.234 99.1836 268.062L99.2617 268.609C98.293 268.781 97.4961 268.836 96.7305 268.836H96.3008V264.539H96.9102ZM110.621 263.688V267.492H110.012V265.539H108.465V265.031H110.012V263.688H110.621ZM106.77 267.828V268.68H110.012V267.828H110.621V270.539H106.152V267.828H106.77ZM106.77 270.039H110.012V269.164H106.77V270.039ZM107.238 264.719C107.23 265.641 107.941 266.484 108.949 266.82L108.637 267.305C107.852 267.027 107.238 266.465 106.941 265.75C106.637 266.531 106.012 267.156 105.199 267.453L104.879 266.969C105.91 266.609 106.629 265.688 106.637 264.688V263.953H107.238V264.719ZM114.402 265C114.402 265.703 115.098 266.297 116.082 266.516L115.832 267.008C115.031 266.812 114.414 266.387 114.113 265.82C113.812 266.434 113.188 266.898 112.363 267.102L112.098 266.609C113.098 266.391 113.793 265.742 113.793 265V264.969H112.246V264.484H113.793V263.711H114.402V264.484H115.949V264.969H114.402V265ZM117.512 263.695V270.641H116.91V263.695H117.512ZM111.77 267.594C113.098 267.594 114.863 267.578 116.402 267.383L116.441 267.828C115.777 267.938 115.09 268.004 114.418 268.039V270.43H113.809V268.07C113.105 268.105 112.438 268.109 111.855 268.109L111.77 267.594ZM125.184 264.781V265.297H124.129V266.242H125.184V266.766H124.129V267.898H123.52V263.695H124.129V264.781H125.184ZM122.145 264.125V266H119.613V266.969C120.848 266.969 121.742 266.926 122.824 266.742L122.887 267.258C121.77 267.445 120.84 267.484 119.551 267.484H119.012V265.516H121.543V264.633H118.996V264.125H122.145ZM121.902 268.102C123.316 268.102 124.191 268.57 124.191 269.367C124.191 270.164 123.316 270.617 121.902 270.617C120.465 270.617 119.598 270.164 119.598 269.367C119.598 268.57 120.465 268.102 121.902 268.102ZM121.902 268.586C120.84 268.586 120.191 268.875 120.199 269.367C120.191 269.852 120.84 270.141 121.902 270.141C122.957 270.141 123.598 269.852 123.598 269.367C123.598 268.875 122.957 268.586 121.902 268.586Z" fill="#C1C7CA"/>
</svg>
