<svg width="177" height="325" viewBox="0 0 177 325" fill="none" xmlns="http://www.w3.org/2000/svg">
<path d="M8.57812 3.53125V6.25H10.1367V7.02344H8.57812V9.75391H7.65234V3.53125H8.57812ZM5.22656 9.95312C7.34766 9.95312 8.66016 10.6914 8.66016 11.9336C8.66016 13.1992 7.34766 13.9258 5.22656 13.9258C3.09375 13.9258 1.76953 13.1992 1.76953 11.9336C1.76953 10.6914 3.09375 9.95312 5.22656 9.95312ZM5.22656 10.7148C3.65625 10.7031 2.67188 11.1719 2.67188 11.9336C2.67188 12.707 3.65625 13.1875 5.22656 13.1875C6.78516 13.1875 7.76953 12.707 7.76953 11.9336C7.76953 11.1719 6.78516 10.7031 5.22656 10.7148ZM5.53125 4.32812V5.08984H1.80469V8.14844C3.91406 8.13672 5.13281 8.07227 6.52734 7.78516L6.62109 8.54688C5.16797 8.83984 3.91406 8.89844 1.71094 8.89844H0.902344V4.32812H5.53125ZM20.3203 9.75391V10.4922H17.8125V13.9492H16.8984V10.4922H14.2031V13.9492H13.2773V10.4922H10.7812V9.75391H20.3203ZM19.1602 3.94141V6.61328H12.8789V7.91406H19.3828V8.67578H11.9531V5.89844H18.2227V4.70312H11.9297V3.94141H19.1602ZM32.8008 3.53125V9.23828H31.8867V6.30859H29.5664V5.54688H31.8867V3.53125H32.8008ZM27.0234 9.74219V11.0195H31.8867V9.74219H32.8008V13.8086H26.0977V9.74219H27.0234ZM27.0234 13.0586H31.8867V11.7461H27.0234V13.0586ZM27.7266 5.07812C27.7148 6.46094 28.7812 7.72656 30.293 8.23047L29.8242 8.95703C28.6465 8.54102 27.7266 7.69727 27.2812 6.625C26.8242 7.79688 25.8867 8.73438 24.668 9.17969L24.1875 8.45312C25.7344 7.91406 26.8125 6.53125 26.8242 5.03125V3.92969H27.7266V5.07812ZM38.4727 5.5C38.4727 6.55469 39.5156 7.44531 40.9922 7.77344L40.6172 8.51172C39.416 8.21875 38.4902 7.58008 38.0391 6.73047C37.5879 7.65039 36.6504 8.34766 35.4141 8.65234L35.0156 7.91406C36.5156 7.58594 37.5586 6.61328 37.5586 5.5V5.45312H35.2383V4.72656H37.5586V3.56641H38.4727V4.72656H40.793V5.45312H38.4727V5.5ZM43.1367 3.54297V13.9609H42.2344V3.54297H43.1367ZM34.5234 9.39062C36.5156 9.39062 39.1641 9.36719 41.4727 9.07422L41.5312 9.74219C40.5352 9.90625 39.5039 10.0059 38.4961 10.0586V13.6445H37.582V10.1055C36.5273 10.1582 35.5254 10.1641 34.6523 10.1641L34.5234 9.39062ZM54.6445 5.17188V5.94531H53.0625V7.36328H54.6445V8.14844H53.0625V9.84766H52.1484V3.54297H53.0625V5.17188H54.6445ZM50.0859 4.1875V7H46.2891V8.45312C48.1406 8.45312 49.4824 8.38867 51.1055 8.11328L51.1992 8.88672C49.5234 9.16797 48.1289 9.22656 46.1953 9.22656H45.3867V6.27344H49.1836V4.94922H45.3633V4.1875H50.0859ZM49.7227 10.1523C51.8438 10.1523 53.1562 10.8555 53.1562 12.0508C53.1562 13.2461 51.8438 13.9258 49.7227 13.9258C47.5664 13.9258 46.2656 13.2461 46.2656 12.0508C46.2656 10.8555 47.5664 10.1523 49.7227 10.1523ZM49.7227 10.8789C48.1289 10.8789 47.1562 11.3125 47.168 12.0508C47.1562 12.7773 48.1289 13.2109 49.7227 13.2109C51.3047 13.2109 52.2656 12.7773 52.2656 12.0508C52.2656 11.3125 51.3047 10.8789 49.7227 10.8789Z" fill="white"/>
<path d="M1.5293 38L7.04883 27.2773V27.1895H0.650391V25.2734H9.42188V27.2246L3.90234 38H1.5293ZM15.6094 38.1758C13.0605 38.1758 11.1973 36.6641 11.127 34.5547H13.3594C13.4297 35.5918 14.3965 36.3301 15.6094 36.3301C17.0332 36.3301 18.0527 35.293 18.0527 33.8867C18.0527 32.4277 16.998 31.3906 15.5391 31.3906C14.5547 31.373 13.834 31.7246 13.4297 32.4805H11.3027L12.0762 25.2734H19.5996V27.1895H13.957L13.5703 30.5645H13.6934C14.1855 30.002 15.1172 29.5977 16.1543 29.5977C18.5273 29.5977 20.2676 31.373 20.2676 33.8164C20.2676 36.3652 18.3516 38.1758 15.6094 38.1758ZM26.3848 41.7793C23.8535 41.7793 22.2539 40.6543 22.0957 38.8613H24.3281C24.4863 39.6875 25.2773 40.0918 26.4199 40.0918C27.7559 40.0918 28.6348 39.5117 28.6348 38.1055V36.2773H28.5293C28.1777 36.9805 27.4219 37.8594 25.7695 37.8594C23.5723 37.8594 21.832 36.2598 21.832 33.1484C21.832 30.002 23.5723 28.332 25.7871 28.332C27.4746 28.332 28.1777 29.334 28.5293 30.0195H28.6348V28.4551H30.8496V38.1582C30.8496 40.6016 28.9688 41.7793 26.3848 41.7793ZM26.3848 36.1016C27.8262 36.1016 28.6523 35.0117 28.6523 33.1836C28.6523 31.373 27.8438 30.1602 26.3848 30.1602C24.8906 30.1602 24.1172 31.4434 24.1172 33.1836C24.1172 34.9414 24.9082 36.1016 26.3848 36.1016Z" fill="#54DAFF"/>
<path d="M15.8398 74L18.4336 69.0078V68.9688H15.4414V68.3438H19.1602V69L16.5742 74H15.8398ZM21.8398 74.0781C20.8164 74.0781 20.043 73.4453 20.0039 72.5781H20.6836C20.7383 73.0859 21.2305 73.4609 21.8398 73.4609C22.5742 73.4609 23.1055 72.9219 23.1055 72.2109C23.1055 71.4766 22.5508 70.9375 21.793 70.9297C21.3164 70.9219 20.9492 71.0703 20.7383 71.4375H20.0586L20.457 68.3438H23.5195V68.9688H21.043L20.832 70.625H20.8867C21.1367 70.4297 21.5195 70.2969 21.918 70.2969C22.9961 70.2969 23.793 71.0938 23.793 72.1953C23.793 73.2891 22.9648 74.0781 21.8398 74.0781ZM26.4961 75.6797C25.4727 75.6797 24.7773 75.2344 24.6992 74.4453H25.4023C25.4961 74.875 25.8945 75.0938 26.4961 75.0938C27.2227 75.0938 27.668 74.7812 27.668 74.0781V73.2188H27.6133C27.4727 73.4531 27.1992 73.9375 26.3789 73.9375C25.3477 73.9375 24.5742 73.1562 24.5742 71.8203C24.5742 70.5156 25.3242 69.7031 26.3867 69.7031C27.207 69.7031 27.4727 70.2031 27.6289 70.4297H27.6836V69.7578H28.3398V74.1172C28.3398 75.2109 27.5273 75.6797 26.4961 75.6797ZM26.4727 73.3359C27.2461 73.3359 27.6836 72.7812 27.6836 71.8438C27.6836 70.9375 27.2617 70.3047 26.4727 70.3047C25.6602 70.3047 25.2539 70.9922 25.2539 71.8438C25.2539 72.7266 25.668 73.3359 26.4727 73.3359Z" fill="#6B7277"/>
<line x1="37" y1="70.5" x2="177" y2="70.5" stroke="#33393C"/>
<path d="M16.7891 154.078C15.7656 154.078 14.9922 153.445 14.9531 152.578H15.6328C15.6875 153.086 16.1797 153.461 16.7891 153.461C17.5234 153.461 18.0547 152.922 18.0547 152.211C18.0547 151.477 17.5 150.938 16.7422 150.93C16.2656 150.922 15.8984 151.07 15.6875 151.438H15.0078L15.4062 148.344H18.4688V148.969H15.9922L15.7812 150.625H15.8359C16.0859 150.43 16.4688 150.297 16.8672 150.297C17.9453 150.297 18.7422 151.094 18.7422 152.195C18.7422 153.289 17.9141 154.078 16.7891 154.078ZM21.5703 154.078C20.3125 154.078 19.5938 153.023 19.5938 151.172C19.5938 149.336 20.3281 148.266 21.5703 148.266C22.8125 148.266 23.5469 149.336 23.5469 151.172C23.5469 153.023 22.8203 154.078 21.5703 154.078ZM21.5703 153.453C22.3828 153.453 22.8594 152.633 22.8594 151.172C22.8594 149.711 22.3828 148.875 21.5703 148.875C20.7578 148.875 20.2734 149.711 20.2734 151.172C20.2734 152.633 20.75 153.453 21.5703 153.453ZM26.2109 155.68C25.1875 155.68 24.4922 155.234 24.4141 154.445H25.1172C25.2109 154.875 25.6094 155.094 26.2109 155.094C26.9375 155.094 27.3828 154.781 27.3828 154.078V153.219H27.3281C27.1875 153.453 26.9141 153.938 26.0938 153.938C25.0625 153.938 24.2891 153.156 24.2891 151.82C24.2891 150.516 25.0391 149.703 26.1016 149.703C26.9219 149.703 27.1875 150.203 27.3438 150.43H27.3984V149.758H28.0547V154.117C28.0547 155.211 27.2422 155.68 26.2109 155.68ZM26.1875 153.336C26.9609 153.336 27.3984 152.781 27.3984 151.844C27.3984 150.938 26.9766 150.305 26.1875 150.305C25.375 150.305 24.9688 150.992 24.9688 151.844C24.9688 152.727 25.3828 153.336 26.1875 153.336Z" fill="#6B7277"/>
<line x1="37" y1="150.5" x2="177" y2="150.5" stroke="#33393C"/>
<path d="M14.9805 234L14.9727 233.484L16.9023 231.453C17.5742 230.742 17.8945 230.359 17.8945 229.836C17.8945 229.258 17.4023 228.875 16.7695 228.875C16.0977 228.875 15.668 229.305 15.668 229.938H15.0039C14.9961 228.938 15.7695 228.266 16.793 228.266C17.8164 228.266 18.5508 228.953 18.5508 229.836C18.5508 230.469 18.2539 230.961 17.2539 231.992L15.957 233.328V233.375H18.6523V234H14.9805ZM21.5195 234.078C20.4961 234.078 19.7227 233.445 19.6836 232.578H20.3633C20.418 233.086 20.9102 233.461 21.5195 233.461C22.2539 233.461 22.7852 232.922 22.7852 232.211C22.7852 231.477 22.2305 230.938 21.4727 230.93C20.9961 230.922 20.6289 231.07 20.418 231.438H19.7383L20.1367 228.344H23.1992V228.969H20.7227L20.5117 230.625H20.5664C20.8164 230.43 21.1992 230.297 21.5977 230.297C22.6758 230.297 23.4727 231.094 23.4727 232.195C23.4727 233.289 22.6445 234.078 21.5195 234.078ZM26.1758 235.68C25.1523 235.68 24.457 235.234 24.3789 234.445H25.082C25.1758 234.875 25.5742 235.094 26.1758 235.094C26.9023 235.094 27.3477 234.781 27.3477 234.078V233.219H27.293C27.1523 233.453 26.8789 233.938 26.0586 233.938C25.0273 233.938 24.2539 233.156 24.2539 231.82C24.2539 230.516 25.0039 229.703 26.0664 229.703C26.8867 229.703 27.1523 230.203 27.3086 230.43H27.3633V229.758H28.0195V234.117C28.0195 235.211 27.207 235.68 26.1758 235.68ZM26.1523 233.336C26.9258 233.336 27.3633 232.781 27.3633 231.844C27.3633 230.938 26.9414 230.305 26.1523 230.305C25.3398 230.305 24.9336 230.992 24.9336 231.844C24.9336 232.727 25.3477 233.336 26.1523 233.336Z" fill="#6B7277"/>
<line x1="37" y1="230.5" x2="177" y2="230.5" stroke="#33393C"/>
<line y1="304.5" x2="177" y2="304.5" stroke="#33393C"/>
<path d="M78.3789 311.688V318.633H77.7773V315.039H76.7773V318.273H76.1992V311.844H76.7773V314.516H77.7773V311.688H78.3789ZM73.4102 312.539V316.289C74.1016 316.281 74.8359 316.234 75.6836 316.062L75.7617 316.609C74.793 316.781 73.9961 316.836 73.2305 316.836H72.8008V312.539H73.4102ZM87.1133 311.688V318.633H86.4961V311.688H87.1133ZM85.0586 312.445C85.0508 314.445 84.1211 316.211 81.793 317.328L81.457 316.828C83.3359 315.938 84.293 314.605 84.4336 312.945H81.7773V312.445H85.0586ZM91.8477 312.555C91.8398 313.406 93.0117 314.102 94.2383 314.273L93.9961 314.758C92.875 314.598 91.8281 314.035 91.4492 313.219C91.0742 314.035 90.0312 314.598 88.9023 314.758L88.6758 314.273C89.9023 314.102 91.0508 313.406 91.0508 312.555V312.539H88.8633V312.039H94.0508V312.539H91.8477V312.555ZM94.6367 315.266V315.773H91.8086V317.195H91.1992V315.773H88.2773V315.266H94.6367ZM93.9258 317.969V318.484H89.0898V316.5H89.707V317.969H93.9258ZM101.684 312.781V313.297H100.629V314.242H101.684V314.766H100.629V315.898H100.02V311.695H100.629V312.781H101.684ZM98.6445 312.125V314H96.1133V314.969C97.3477 314.969 98.2422 314.926 99.3242 314.742L99.3867 315.258C98.2695 315.445 97.3398 315.484 96.0508 315.484H95.5117V313.516H98.043V312.633H95.4961V312.125H98.6445ZM98.4023 316.102C99.8164 316.102 100.691 316.57 100.691 317.367C100.691 318.164 99.8164 318.617 98.4023 318.617C96.9648 318.617 96.0977 318.164 96.0977 317.367C96.0977 316.57 96.9648 316.102 98.4023 316.102ZM98.4023 316.586C97.3398 316.586 96.6914 316.875 96.6992 317.367C96.6914 317.852 97.3398 318.141 98.4023 318.141C99.457 318.141 100.098 317.852 100.098 317.367C100.098 316.875 99.457 316.586 98.4023 316.586Z" fill="#C1C7CA"/>
<path d="M118.379 311.688V318.633H117.777V315.039H116.777V318.273H116.199V311.844H116.777V314.516H117.777V311.688H118.379ZM113.41 312.539V316.289C114.102 316.281 114.836 316.234 115.684 316.062L115.762 316.609C114.793 316.781 113.996 316.836 113.23 316.836H112.801V312.539H113.41ZM127.121 311.688V315.492H126.512V313.539H124.965V313.031H126.512V311.688H127.121ZM123.27 315.828V316.68H126.512V315.828H127.121V318.539H122.652V315.828H123.27ZM123.27 318.039H126.512V317.164H123.27V318.039ZM123.738 312.719C123.73 313.641 124.441 314.484 125.449 314.82L125.137 315.305C124.352 315.027 123.738 314.465 123.441 313.75C123.137 314.531 122.512 315.156 121.699 315.453L121.379 314.969C122.41 314.609 123.129 313.688 123.137 312.688V311.953H123.738V312.719ZM130.902 313C130.902 313.703 131.598 314.297 132.582 314.516L132.332 315.008C131.531 314.812 130.914 314.387 130.613 313.82C130.312 314.434 129.688 314.898 128.863 315.102L128.598 314.609C129.598 314.391 130.293 313.742 130.293 313V312.969H128.746V312.484H130.293V311.711H130.902V312.484H132.449V312.969H130.902V313ZM134.012 311.695V318.641H133.41V311.695H134.012ZM128.27 315.594C129.598 315.594 131.363 315.578 132.902 315.383L132.941 315.828C132.277 315.938 131.59 316.004 130.918 316.039V318.43H130.309V316.07C129.605 316.105 128.938 316.109 128.355 316.109L128.27 315.594ZM141.684 312.781V313.297H140.629V314.242H141.684V314.766H140.629V315.898H140.02V311.695H140.629V312.781H141.684ZM138.645 312.125V314H136.113V314.969C137.348 314.969 138.242 314.926 139.324 314.742L139.387 315.258C138.27 315.445 137.34 315.484 136.051 315.484H135.512V313.516H138.043V312.633H135.496V312.125H138.645ZM138.402 316.102C139.816 316.102 140.691 316.57 140.691 317.367C140.691 318.164 139.816 318.617 138.402 318.617C136.965 318.617 136.098 318.164 136.098 317.367C136.098 316.57 136.965 316.102 138.402 316.102ZM138.402 316.586C137.34 316.586 136.691 316.875 136.699 317.367C136.691 317.852 137.34 318.141 138.402 318.141C139.457 318.141 140.098 317.852 140.098 317.367C140.098 316.875 139.457 316.586 138.402 316.586Z" fill="#C1C7CA"/>
<path d="M69 235C69 232.791 70.7909 231 73 231H101C103.209 231 105 232.791 105 235V305H69V235Z" fill="#505659"/>
<path d="M109 75C109 72.7909 110.791 71 113 71H141C143.209 71 145 72.7909 145 75V305H109V75Z" fill="#54DAFF"/>
</svg>
