<svg width="80" height="80" viewBox="0 0 80 80" fill="none" xmlns="http://www.w3.org/2000/svg">
<path d="M40.0002 76.3918C60.0988 76.3918 76.392 60.0986 76.392 40C76.392 19.9014 60.0988 3.60822 40.0002 3.60822C19.9016 3.60822 3.6084 19.9014 3.6084 40C3.6084 60.0986 19.9016 76.3918 40.0002 76.3918Z" fill="#222527"/>
<path d="M53.2686 27.8477V31.6078C56.6828 31.6078 59.4508 34.2742 59.4508 37.563C59.4508 40.8518 56.6828 43.5182 53.2686 43.5182V47.2783C58.8389 47.2783 63.3544 42.929 63.3544 37.563C63.3544 32.197 58.8389 27.8477 53.2686 27.8477Z" fill="#54DAFF"/>
<path d="M28.5005 56.9708H49.6272V59.5374C49.6272 60.1741 49.1103 60.691 48.4736 60.691H29.6541C29.0174 60.691 28.5005 60.1741 28.5005 59.5374V56.9708Z" fill="#54DAFF"/>
<path d="M25.7248 19H52.4029C53.8777 19 55.0759 20.1974 55.0759 21.6731V50.8332C55.0759 54.6361 51.9886 57.7224 48.1867 57.7224H29.942C26.1391 57.7224 23.0527 54.6351 23.0527 50.8332V21.6731C23.0527 20.1983 24.25 19 25.7258 19H25.7248Z" fill="url(#paint0_linear_844_9197)"/>
<path d="M50.6801 20.2962H27.4466C26.0029 20.2962 24.8325 21.4666 24.8325 22.9103C24.8325 24.3541 26.0029 25.5244 27.4466 25.5244H50.6801C52.1238 25.5244 53.2942 24.3541 53.2942 22.9103C53.2942 21.4666 52.1238 20.2962 50.6801 20.2962Z" fill="#181C1E"/>
<defs>
<linearGradient id="paint0_linear_844_9197" x1="39.0634" y1="21.7082" x2="39.0634" y2="56.185" gradientUnits="userSpaceOnUse">
<stop stop-color="#54DAFF"/>
<stop offset="0.2" stop-color="#53D4FA"/>
<stop offset="0.44" stop-color="#53C6EE"/>
<stop offset="0.7" stop-color="#52AED9"/>
<stop offset="0.98" stop-color="#518DBC"/>
<stop offset="1" stop-color="#518ABA"/>
</linearGradient>
</defs>
</svg>
