<svg width="177" height="104" viewBox="0 0 177 104" fill="none" xmlns="http://www.w3.org/2000/svg">
<path d="M75.5332 3.44922V14.043H74.2207V3.44922H75.5332ZM72.3691 4.57422C72.3691 7.72656 71.1504 10.4102 67.4355 12.168L66.7559 11.125C69.5273 9.80664 70.8164 8.01367 71.0449 5.60547H67.2949V4.57422H72.3691ZM85.8457 3.92969V4.97266H82.7754C82.8926 5.96875 84.1875 6.91797 86.2324 7.16406L85.7402 8.19531C83.8418 7.9668 82.4414 7.12891 81.873 5.98047C81.3047 7.12305 79.916 7.9668 78.0176 8.19531L77.5371 7.16406C79.582 6.91797 80.8594 5.96875 80.9824 4.97266H77.9355V3.92969H85.8457ZM86.7246 8.78125V9.83594H82.6348V11.7695H81.3457V9.83594H77.0449V8.78125H86.7246ZM85.6582 12.7773V13.832H78.2168V10.7969H79.5176V12.7773H85.6582ZM99.0879 3.44922V14.0547H97.7754V3.44922H99.0879ZM93.3809 4.22266C94.9746 4.22266 96.1348 5.67578 96.1465 7.96094C96.1348 10.2695 94.9746 11.7109 93.3809 11.7109C91.7754 11.7109 90.6152 10.2695 90.6152 7.96094C90.6152 5.67578 91.7754 4.22266 93.3809 4.22266ZM93.3809 5.39453C92.4785 5.39453 91.8691 6.34375 91.8691 7.96094C91.8691 9.58984 92.4785 10.5391 93.3809 10.5391C94.2715 10.5391 94.8809 9.58984 94.8809 7.96094C94.8809 6.34375 94.2715 5.39453 93.3809 5.39453ZM104.396 5.13672C104.396 6.47266 105.264 7.72656 106.893 8.24219L106.189 9.26172C105.047 8.875 104.227 8.10156 103.775 7.11719C103.307 8.24219 102.451 9.12695 101.232 9.55469L100.529 8.53516C102.24 7.9375 103.084 6.53125 103.096 5.01953V4.01172H104.396V5.13672ZM109.002 3.44922V6.02734H110.479V7.10547H109.002V9.78906H107.701V3.44922H109.002ZM105.557 10.0234C107.748 10.0117 109.096 10.7617 109.107 12.0156C109.096 13.293 107.748 14.0312 105.557 14.0312C103.342 14.0312 101.971 13.293 101.971 12.0156C101.971 10.7617 103.342 10.0117 105.557 10.0234ZM105.557 11.043C104.104 11.043 103.271 11.3945 103.271 12.0156C103.271 12.6719 104.104 13 105.557 13C107.01 13 107.818 12.6719 107.818 12.0156C107.818 11.3945 107.01 11.043 105.557 11.043Z" fill="#C1C7CA"/>
<rect x="0.5" y="26.5" width="176" height="77" rx="7.5" stroke="#505659"/>
<path d="M20.0703 40.6562C20.0703 44.9219 18.8984 48.5781 13.6953 51.1719L12.7422 49.8594C15.1875 48.6484 16.6406 47.2422 17.4609 45.5625L13.0703 45.9844L12.8516 44.4844L17.9922 44.1562C18.1719 43.5 18.2812 42.8047 18.3359 42.0625H13.5859V40.6562H20.0703ZM23.7891 39.2656V44.7969H25.8828V46.2188H23.7891V53.3594H22.0547V39.2656H23.7891ZM38.8203 39.2656V53.3906H37.1641V39.2656H38.8203ZM36.0078 39.5625V52.6875H34.3516V46.0312H32.7891V44.4844H34.3516V39.5625H36.0078ZM33.1484 40.9375V42.3438H32.1484V48.4375C32.5938 48.3984 33.0156 48.3516 33.4141 48.2969L33.5234 49.5625C31.3047 50.0156 28.3984 50.0625 26.6016 50.0625L26.3984 48.625L27.6797 48.6094V42.3438H26.6797V40.9375H33.1484ZM29.2422 48.5781L30.5547 48.5312V42.3438H29.2422V48.5781ZM52.1484 39.2812V49.4844H50.3984V39.2812H52.1484ZM52.5391 51.7031V53.1094H42.8047V48.4531H44.5547V51.7031H52.5391ZM44.4453 40.2031C46.5859 40.2031 48.2422 41.6875 48.2422 43.7344C48.2422 45.8281 46.5859 47.2812 44.4453 47.2812C42.2891 47.2812 40.6328 45.8281 40.6328 43.7344C40.6328 41.6875 42.2891 40.2031 44.4453 40.2031ZM44.4453 41.7188C43.2422 41.7188 42.3203 42.5156 42.3359 43.7344C42.3203 44.9844 43.2422 45.7656 44.4453 45.7656C45.6172 45.7656 46.5391 44.9844 46.5391 43.7344C46.5391 42.5156 45.6172 41.7188 44.4453 41.7188Z" fill="white"/>
<path d="M67.1484 52.1562C64.8047 52.1562 63.1328 50.8906 63.0703 49.0469H64.8203C64.8828 50.0469 65.8672 50.6719 67.1328 50.6719C68.4922 50.6719 69.4922 49.9219 69.4922 48.8281C69.4922 47.7188 68.5547 46.9062 66.9453 46.9062H65.9766V45.5H66.9453C68.2266 45.5 69.1328 44.7812 69.1328 43.7031C69.1328 42.6719 68.3672 41.9688 67.1641 41.9688C66.0234 41.9688 65.0234 42.5938 64.9766 43.625H63.3203C63.3672 41.7812 65.0703 40.5312 67.1797 40.5312C69.3984 40.5312 70.8047 41.9375 70.7891 43.6094C70.8047 44.8906 70.0078 45.8281 68.7891 46.125V46.2031C70.3359 46.4219 71.2266 47.4531 71.2266 48.8906C71.2266 50.7812 69.4922 52.1562 67.1484 52.1562ZM77.0547 52.1562C74.4297 52.1562 72.8984 50.0469 72.8984 46.3438C72.8984 42.6719 74.4609 40.5312 77.0547 40.5312C79.6484 40.5312 81.2109 42.6719 81.2109 46.3438C81.2109 50.0469 79.6641 52.1562 77.0547 52.1562ZM77.0547 50.6719C78.5859 50.6719 79.4922 49.1719 79.4922 46.3438C79.4922 43.5312 78.5703 41.9844 77.0547 41.9844C75.5391 41.9844 74.6172 43.5312 74.6172 46.3438C74.6172 49.1719 75.5234 50.6719 77.0547 50.6719ZM86.9297 52.1562C84.3047 52.1562 82.7734 50.0469 82.7734 46.3438C82.7734 42.6719 84.3359 40.5312 86.9297 40.5312C89.5234 40.5312 91.0859 42.6719 91.0859 46.3438C91.0859 50.0469 89.5391 52.1562 86.9297 52.1562ZM86.9297 50.6719C88.4609 50.6719 89.3672 49.1719 89.3672 46.3438C89.3672 43.5312 88.4453 41.9844 86.9297 41.9844C85.4141 41.9844 84.4922 43.5312 84.4922 46.3438C84.4922 49.1719 85.3984 50.6719 86.9297 50.6719ZM92.8828 52V43.5156H94.4922V44.9062H94.5859C94.9453 43.9531 95.7734 43.4062 96.8984 43.4062C98.0234 43.4062 98.8203 43.9688 99.1797 44.9062H99.2734C99.6797 43.9844 100.586 43.4062 101.82 43.4062C103.352 43.4062 104.445 44.375 104.445 46.3125V52H102.773V46.4688C102.773 45.3281 102.055 44.8438 101.18 44.8438C100.102 44.8438 99.4922 45.5781 99.4922 46.5938V52H97.8359V46.375C97.8359 45.4531 97.1953 44.8438 96.2891 44.8438C95.3516 44.8438 94.5547 45.625 94.5547 46.7656V52H92.8828ZM110.023 55.3594C107.883 55.3594 106.477 54.4062 106.32 52.8281H108.023C108.18 53.625 108.93 54.0156 110.039 54.0156C111.367 54.0156 112.211 53.4531 112.211 52.125V50.4531H112.102C111.805 51 111.195 51.875 109.633 51.875C107.633 51.875 106.086 50.375 106.086 47.6719C106.086 44.9688 107.602 43.4062 109.648 43.4062C111.227 43.4062 111.805 44.3594 112.117 44.8906H112.227V43.5156H113.852V52.1875C113.852 54.3594 112.211 55.3594 110.023 55.3594ZM110.008 50.5C111.43 50.5 112.227 49.4531 112.227 47.7031C112.227 45.9844 111.445 44.8281 110.008 44.8281C108.523 44.8281 107.789 46.0781 107.789 47.7031C107.789 49.3594 108.555 50.5 110.008 50.5Z" fill="#54DAFF"/>
<rect x="145.5" y="36.5" width="19" height="19" rx="9.5" stroke="#FF0000"/>
<path d="M155.791 41.5156L155.662 47.5039H154.338L154.197 41.5156H155.791ZM155.006 50.0938C154.502 50.0938 154.092 49.6836 154.092 49.1797C154.092 48.6875 154.502 48.2773 155.006 48.2773C155.486 48.2773 155.908 48.6875 155.908 49.1797C155.908 49.6836 155.486 50.0938 155.006 50.0938Z" fill="#FF0000"/>
<path d="M21.0469 69.5312V75.2383H20.1328V72.3086H17.8125V71.5469H20.1328V69.5312H21.0469ZM15.2695 75.7422V77.0195H20.1328V75.7422H21.0469V79.8086H14.3438V75.7422H15.2695ZM15.2695 79.0586H20.1328V77.7461H15.2695V79.0586ZM15.9727 71.0781C15.9609 72.4609 17.0273 73.7266 18.5391 74.2305L18.0703 74.957C16.8926 74.541 15.9727 73.6973 15.5273 72.625C15.0703 73.7969 14.1328 74.7344 12.9141 75.1797L12.4336 74.4531C13.9805 73.9141 15.0586 72.5312 15.0703 71.0312V69.9297H15.9727V71.0781ZM26.7188 71.5C26.7188 72.5547 27.7617 73.4453 29.2383 73.7734L28.8633 74.5117C27.6621 74.2188 26.7363 73.5801 26.2852 72.7305C25.834 73.6504 24.8965 74.3477 23.6602 74.6523L23.2617 73.9141C24.7617 73.5859 25.8047 72.6133 25.8047 71.5V71.4531H23.4844V70.7266H25.8047V69.5664H26.7188V70.7266H29.0391V71.4531H26.7188V71.5ZM31.3828 69.543V79.9609H30.4805V69.543H31.3828ZM22.7695 75.3906C24.7617 75.3906 27.4102 75.3672 29.7188 75.0742L29.7773 75.7422C28.7812 75.9062 27.75 76.0059 26.7422 76.0586V79.6445H25.8281V76.1055C24.7734 76.1582 23.7715 76.1641 22.8984 76.1641L22.7695 75.3906ZM36.3398 77.2656V76.3984L40.1602 70.5156H41.4609V76.3398H42.6445V77.2656H41.4609V79H40.4531V77.2656H36.3398ZM37.4766 76.3398H40.4531V71.8516H40.3477L37.4766 76.2695V76.3398ZM47.0742 70.1172L44.332 80.2773H43.418L46.1484 70.1172H47.0742ZM50.9766 79.1172C49.2891 79.1172 48.082 78.2148 48.0234 76.8672H49.0898C49.1484 77.6758 49.957 78.1797 50.9648 78.1797C52.0781 78.1797 52.8984 77.5703 52.8984 76.6914C52.8984 75.7656 52.1602 75.1094 50.8359 75.1094H50.1445V74.1836H50.8359C51.8672 74.1836 52.582 73.6094 52.582 72.7305C52.582 71.8867 51.9609 71.3125 51 71.3125C50.0977 71.3125 49.2656 71.8164 49.2188 72.6484H48.1992C48.2578 71.3008 49.5 70.3984 51.0117 70.3984C52.6289 70.3984 53.6133 71.4531 53.6016 72.6719C53.6133 73.6328 53.0508 74.3477 52.1602 74.5938V74.6523C53.2617 74.8281 53.9414 75.6133 53.9297 76.6914C53.9414 78.0859 52.6641 79.1172 50.9766 79.1172ZM58.6055 71.7109C58.6055 73.1289 59.6484 74.3945 61.1836 74.9336L60.668 75.6133C59.5078 75.209 58.6055 74.3535 58.1602 73.2695C57.7148 74.4707 56.7598 75.4375 55.5352 75.8945L55.043 75.1562C56.6016 74.5938 57.6914 73.1992 57.7031 71.7109V71.207H55.3477V70.4453H60.9492V71.207H58.6055V71.7109ZM63.2227 69.5312V72.7305H64.793V73.4922H63.2227V77.1484H62.3086V69.5312H63.2227ZM63.7031 78.9531V79.7266H56.707V76.4805H57.6094V78.9531H63.7031Z" fill="#6B7277"/>
<g clip-path="url(#clip0_602_8687)">
<rect x="12" y="88" width="153" height="4" rx="2" fill="#33393C"/>
<rect width="200" height="4" transform="translate(-12 88)" fill="white"/>
</g>
<defs>
<clipPath id="clip0_602_8687">
<rect x="12" y="88" width="153" height="4" rx="2" fill="white"/>
</clipPath>
</defs>
</svg>
