<svg width="177" height="104" viewBox="0 0 177 104" fill="none" xmlns="http://www.w3.org/2000/svg">
<path d="M75.5332 3.44922V14.043H74.2207V3.44922H75.5332ZM72.3691 4.57422C72.3691 7.72656 71.1504 10.4102 67.4355 12.168L66.7559 11.125C69.5273 9.80664 70.8164 8.01367 71.0449 5.60547H67.2949V4.57422H72.3691ZM85.8457 3.92969V4.97266H82.7754C82.8926 5.96875 84.1875 6.91797 86.2324 7.16406L85.7402 8.19531C83.8418 7.9668 82.4414 7.12891 81.873 5.98047C81.3047 7.12305 79.916 7.9668 78.0176 8.19531L77.5371 7.16406C79.582 6.91797 80.8594 5.96875 80.9824 4.97266H77.9355V3.92969H85.8457ZM86.7246 8.78125V9.83594H82.6348V11.7695H81.3457V9.83594H77.0449V8.78125H86.7246ZM85.6582 12.7773V13.832H78.2168V10.7969H79.5176V12.7773H85.6582ZM99.0879 3.44922V14.0547H97.7754V3.44922H99.0879ZM93.3809 4.22266C94.9746 4.22266 96.1348 5.67578 96.1465 7.96094C96.1348 10.2695 94.9746 11.7109 93.3809 11.7109C91.7754 11.7109 90.6152 10.2695 90.6152 7.96094C90.6152 5.67578 91.7754 4.22266 93.3809 4.22266ZM93.3809 5.39453C92.4785 5.39453 91.8691 6.34375 91.8691 7.96094C91.8691 9.58984 92.4785 10.5391 93.3809 10.5391C94.2715 10.5391 94.8809 9.58984 94.8809 7.96094C94.8809 6.34375 94.2715 5.39453 93.3809 5.39453ZM109.74 3.44922V14.043H108.486V8.6875H107.314V13.5039H106.096V3.64844H107.314V7.62109H108.486V3.44922H109.74ZM102.416 4.66797V10.2578C103.33 10.2402 104.332 10.1641 105.439 9.94141L105.568 11.0781C104.139 11.3359 102.932 11.4062 101.807 11.4062H101.104V4.66797H102.416Z" fill="#C1C7CA"/>
<rect x="0.5" y="26.5" width="176" height="77" rx="7.5" stroke="#505659"/>
<path d="M20.0703 40.6562C20.0703 44.9219 18.8984 48.5781 13.6953 51.1719L12.7422 49.8594C15.1875 48.6484 16.6406 47.2422 17.4609 45.5625L13.0703 45.9844L12.8516 44.4844L17.9922 44.1562C18.1719 43.5 18.2812 42.8047 18.3359 42.0625H13.5859V40.6562H20.0703ZM23.7891 39.2656V44.7969H25.8828V46.2188H23.7891V53.3594H22.0547V39.2656H23.7891ZM38.8203 39.2656V53.3906H37.1641V39.2656H38.8203ZM36.0078 39.5625V52.6875H34.3516V46.0312H32.7891V44.4844H34.3516V39.5625H36.0078ZM33.1484 40.9375V42.3438H32.1484V48.4375C32.5938 48.3984 33.0156 48.3516 33.4141 48.2969L33.5234 49.5625C31.3047 50.0156 28.3984 50.0625 26.6016 50.0625L26.3984 48.625L27.6797 48.6094V42.3438H26.6797V40.9375H33.1484ZM29.2422 48.5781L30.5547 48.5312V42.3438H29.2422V48.5781ZM52.1484 39.2812V49.4844H50.3984V39.2812H52.1484ZM52.5391 51.7031V53.1094H42.8047V48.4531H44.5547V51.7031H52.5391ZM44.4453 40.2031C46.5859 40.2031 48.2422 41.6875 48.2422 43.7344C48.2422 45.8281 46.5859 47.2812 44.4453 47.2812C42.2891 47.2812 40.6328 45.8281 40.6328 43.7344C40.6328 41.6875 42.2891 40.2031 44.4453 40.2031ZM44.4453 41.7188C43.2422 41.7188 42.3203 42.5156 42.3359 43.7344C42.3203 44.9844 43.2422 45.7656 44.4453 45.7656C45.6172 45.7656 46.5391 44.9844 46.5391 43.7344C46.5391 42.5156 45.6172 41.7188 44.4453 41.7188Z" fill="white"/>
<path d="M67.4219 40.6875V52H65.6875V42.4062H65.625L62.9219 44.1719V42.5312L65.7344 40.6875H67.4219ZM74.1406 52.1562C72 52.1562 70.3906 50.8438 70.3125 49.0469H71.9844C72.0781 50.0156 73 50.7188 74.1406 50.7188C75.5156 50.7188 76.5 49.7188 76.5 48.375C76.5 47 75.4844 46 74.0625 45.9844C73.1562 45.9844 72.4688 46.2812 72.0781 46.9844H70.4531L71.1875 40.6875H77.5938V42.1562H72.6094L72.2344 45.3281H72.3438C72.8125 44.875 73.6094 44.5625 74.4688 44.5625C76.5938 44.5625 78.1719 46.1406 78.1719 48.3281C78.1719 50.5625 76.5 52.1562 74.1406 52.1562ZM83.9375 52.1562C81.3125 52.1562 79.7812 50.0469 79.7812 46.3438C79.7812 42.6719 81.3438 40.5312 83.9375 40.5312C86.5312 40.5312 88.0938 42.6719 88.0938 46.3438C88.0938 50.0469 86.5469 52.1562 83.9375 52.1562ZM83.9375 50.6719C85.4688 50.6719 86.375 49.1719 86.375 46.3438C86.375 43.5312 85.4531 41.9844 83.9375 41.9844C82.4219 41.9844 81.5 43.5312 81.5 46.3438C81.5 49.1719 82.4062 50.6719 83.9375 50.6719ZM89.8906 52V43.5156H91.5V44.9062H91.5938C91.9531 43.9531 92.7812 43.4062 93.9062 43.4062C95.0312 43.4062 95.8281 43.9688 96.1875 44.9062H96.2812C96.6875 43.9844 97.5938 43.4062 98.8281 43.4062C100.359 43.4062 101.453 44.375 101.453 46.3125V52H99.7812V46.4688C99.7812 45.3281 99.0625 44.8438 98.1875 44.8438C97.1094 44.8438 96.5 45.5781 96.5 46.5938V52H94.8438V46.375C94.8438 45.4531 94.2031 44.8438 93.2969 44.8438C92.3594 44.8438 91.5625 45.625 91.5625 46.7656V52H89.8906ZM107.031 55.3594C104.891 55.3594 103.484 54.4062 103.328 52.8281H105.031C105.188 53.625 105.938 54.0156 107.047 54.0156C108.375 54.0156 109.219 53.4531 109.219 52.125V50.4531H109.109C108.812 51 108.203 51.875 106.641 51.875C104.641 51.875 103.094 50.375 103.094 47.6719C103.094 44.9688 104.609 43.4062 106.656 43.4062C108.234 43.4062 108.812 44.3594 109.125 44.8906H109.234V43.5156H110.859V52.1875C110.859 54.3594 109.219 55.3594 107.031 55.3594ZM107.016 50.5C108.438 50.5 109.234 49.4531 109.234 47.7031C109.234 45.9844 108.453 44.8281 107.016 44.8281C105.531 44.8281 104.797 46.0781 104.797 47.7031C104.797 49.3594 105.562 50.5 107.016 50.5Z" fill="#54DAFF"/>
<path d="M21.0469 69.5312V75.2383H20.1328V72.3086H17.8125V71.5469H20.1328V69.5312H21.0469ZM15.2695 75.7422V77.0195H20.1328V75.7422H21.0469V79.8086H14.3438V75.7422H15.2695ZM15.2695 79.0586H20.1328V77.7461H15.2695V79.0586ZM15.9727 71.0781C15.9609 72.4609 17.0273 73.7266 18.5391 74.2305L18.0703 74.957C16.8926 74.541 15.9727 73.6973 15.5273 72.625C15.0703 73.7969 14.1328 74.7344 12.9141 75.1797L12.4336 74.4531C13.9805 73.9141 15.0586 72.5312 15.0703 71.0312V69.9297H15.9727V71.0781ZM26.7188 71.5C26.7188 72.5547 27.7617 73.4453 29.2383 73.7734L28.8633 74.5117C27.6621 74.2188 26.7363 73.5801 26.2852 72.7305C25.834 73.6504 24.8965 74.3477 23.6602 74.6523L23.2617 73.9141C24.7617 73.5859 25.8047 72.6133 25.8047 71.5V71.4531H23.4844V70.7266H25.8047V69.5664H26.7188V70.7266H29.0391V71.4531H26.7188V71.5ZM31.3828 69.543V79.9609H30.4805V69.543H31.3828ZM22.7695 75.3906C24.7617 75.3906 27.4102 75.3672 29.7188 75.0742L29.7773 75.7422C28.7812 75.9062 27.75 76.0059 26.7422 76.0586V79.6445H25.8281V76.1055C24.7734 76.1582 23.7715 76.1641 22.8984 76.1641L22.7695 75.3906ZM36.5508 79L36.5391 78.2266L39.4336 75.1797C40.4414 74.1133 40.9219 73.5391 40.9219 72.7539C40.9219 71.8867 40.1836 71.3125 39.2344 71.3125C38.2266 71.3125 37.582 71.957 37.582 72.9062H36.5859C36.5742 71.4062 37.7344 70.3984 39.2695 70.3984C40.8047 70.3984 41.9062 71.4297 41.9062 72.7539C41.9062 73.7031 41.4609 74.4414 39.9609 75.9883L38.0156 77.9922V78.0625H42.0586V79H36.5508ZM46.6289 70.1172L43.8867 80.2773H42.9727L45.7031 70.1172H46.6289ZM50.5312 79.1172C48.8438 79.1172 47.6367 78.2148 47.5781 76.8672H48.6445C48.7031 77.6758 49.5117 78.1797 50.5195 78.1797C51.6328 78.1797 52.4531 77.5703 52.4531 76.6914C52.4531 75.7656 51.7148 75.1094 50.3906 75.1094H49.6992V74.1836H50.3906C51.4219 74.1836 52.1367 73.6094 52.1367 72.7305C52.1367 71.8867 51.5156 71.3125 50.5547 71.3125C49.6523 71.3125 48.8203 71.8164 48.7734 72.6484H47.7539C47.8125 71.3008 49.0547 70.3984 50.5664 70.3984C52.1836 70.3984 53.168 71.4531 53.1562 72.6719C53.168 73.6328 52.6055 74.3477 51.7148 74.5938V74.6523C52.8164 74.8281 53.4961 75.6133 53.4844 76.6914C53.4961 78.0859 52.2188 79.1172 50.5312 79.1172ZM58.1602 71.7109C58.1602 73.1289 59.2031 74.3945 60.7383 74.9336L60.2227 75.6133C59.0625 75.209 58.1602 74.3535 57.7148 73.2695C57.2695 74.4707 56.3145 75.4375 55.0898 75.8945L54.5977 75.1562C56.1562 74.5938 57.2461 73.1992 57.2578 71.7109V71.207H54.9023V70.4453H60.5039V71.207H58.1602V71.7109ZM62.7773 69.5312V72.7305H64.3477V73.4922H62.7773V77.1484H61.8633V69.5312H62.7773ZM63.2578 78.9531V79.7266H56.2617V76.4805H57.1641V78.9531H63.2578Z" fill="#6B7277"/>
<g clip-path="url(#clip0_602_8686)">
<rect x="12" y="88" width="153" height="4" rx="2" fill="#33393C"/>
<rect width="200" height="4" transform="translate(-131 88)" fill="white"/>
</g>
<defs>
<clipPath id="clip0_602_8686">
<rect x="12" y="88" width="153" height="4" rx="2" fill="white"/>
</clipPath>
</defs>
</svg>
