<svg width="64" height="64" viewBox="0 0 64 64" fill="none" xmlns="http://www.w3.org/2000/svg">
<g clip-path="url(#clip0_1264_9327)">
<rect width="64" height="64" rx="32" fill="#C1C7CA"/>
<path d="M56 64V56C56 51.7565 54.7357 47.6869 52.4853 44.6863C50.2348 41.6857 47.1826 40 44 40H20C16.8174 40 13.7652 41.6857 11.5147 44.6863C9.26428 47.6869 8 51.7565 8 56V64" fill="#DFE3E6"/>
<path d="M32 36C38.6274 36 44 30.6274 44 24C44 17.3726 38.6274 12 32 12C25.3726 12 20 17.3726 20 24C20 30.6274 25.3726 36 32 36Z" fill="#DFE3E6"/>
</g>
<defs>
<clipPath id="clip0_1264_9327">
<rect width="64" height="64" rx="32" fill="white"/>
</clipPath>
</defs>
</svg>
